<svg width="48" height="48" viewBox="0 0 48 48" fill="none" xmlns="http://www.w3.org/2000/svg">
<path d="M48 24C48 37.2548 37.2548 48 24 48C10.7452 48 0 37.2548 0 24C0 10.7452 10.7452 0 24 0C37.2548 0 48 10.7452 48 24Z" fill="#F8F8F8"/>
<path d="M24.0616 11.1184C24.0186 11.0924 23.9584 11.0664 23.9412 11.0578C23.9154 11.0491 23.8638 11.0578 23.8209 11.0751L17.5708 14.149C17.5278 14.1663 17.5278 14.1923 17.5708 14.1923H30.2171C30.2687 14.1923 30.2687 14.175 30.2257 14.149L24.0616 11.1184Z" fill="#007894"/>
<path d="M24.0043 1.84615C11.7866 1.84615 1.84615 11.7866 1.84615 24.0043C1.84615 36.2221 11.7866 46.1538 24.0043 46.1538C36.2221 46.1538 46.1538 36.2134 46.1538 24.0043C46.1538 11.7953 36.2134 1.84615 24.0043 1.84615ZM36.4818 36.8715C36.4818 36.8715 36.4559 36.9408 36.4126 36.9408H11.5874C11.5874 36.9408 11.5182 36.9148 11.5182 36.8715V34.3777C11.5182 34.3777 11.5441 34.3084 11.5874 34.3084H36.4212C36.4212 34.3084 36.4905 34.3344 36.4905 34.3777V36.8715H36.4818ZM19.7615 30.334V17.7526H22.6102V30.3427H25.3898V17.7526H28.2385V30.3427H31.0873V17.7526H33.9275V30.3427H35.1917V32.9057C35.1917 32.9057 35.1657 32.975 35.1224 32.975H12.8776C12.8776 32.975 12.8083 32.949 12.8083 32.9057V30.3427H14.0639V17.7526H16.904V30.334H19.7615ZM37.3131 15.0943L36.5251 16.4711C36.4991 16.5144 36.4385 16.549 36.3866 16.549H11.6307C11.5788 16.549 11.5182 16.5144 11.4922 16.4711L10.7042 15.0943C10.6783 15.051 10.7042 14.9904 10.7389 14.9731L23.9351 7.95935C23.9351 7.95935 24.0476 7.93338 24.0909 7.95935L37.2785 14.9731C37.3217 14.9991 37.3391 15.051 37.3131 15.0943Z" fill="#007894"/>
</svg>
