<svg width="48" height="48" viewBox="0 0 48 48" fill="none" xmlns="http://www.w3.org/2000/svg">
<rect width="48" height="48" rx="24" fill="white"/>
<path d="M47 24C47 36.7025 36.7025 47 24 47C11.2975 47 1 36.7025 1 24C1 11.2975 11.2975 1 24 1C36.7025 1 47 11.2975 47 24Z" fill="#E9333D"/>
<path d="M26.589 24.0115C26.5481 22.2802 24.8431 21.5187 23.6796 21.125C23.6796 21.125 25.52 21.3175 25.679 21.3563C25.8365 21.3951 27.2471 22.2874 26.589 24.0115Z" fill="white"/>
<path d="M28.6279 25.9224V22.7672H30.1267C31.2067 22.7672 31.7467 23.2644 31.7467 24.2586C31.7467 25.3678 31.2067 25.9224 30.1267 25.9224H28.6279ZM30.0306 25.4152C30.7485 25.4152 31.1059 25.0302 31.1059 24.2586C31.1059 23.602 30.747 23.2744 30.0306 23.2744H29.2686V25.4152H30.0306Z" fill="white"/>
<path d="M32.992 22.7672V25.9224H32.3512V22.7672H32.992Z" fill="white"/>
<path d="M33.7178 25.9224V22.7672H34.3585L36.2808 25.023V22.7672H36.898V25.9224H36.2572L34.3349 23.6178V25.9224H33.7178Z" fill="white"/>
<path d="M39.1415 25.9339C38.1827 25.9339 37.4034 25.2227 37.4034 24.3462C37.4034 23.4712 38.1827 22.7586 39.1415 22.7586C40.1003 22.7586 40.8811 23.4712 40.8811 24.3462C40.8811 25.2227 40.1003 25.9339 39.1415 25.9339ZM39.1415 23.2701C38.4913 23.2701 37.9623 23.7529 37.9623 24.3462C37.9623 24.9396 38.4913 25.4224 39.1415 25.4224C39.7917 25.4224 40.3207 24.9396 40.3207 24.3462C40.3223 23.7543 39.7917 23.2701 39.1415 23.2701Z" fill="white"/>
<path d="M9.49931 24.6308C9.35447 24.5503 9.13406 24.5101 8.83807 24.5101H8.16267V25.5273H8.87114C9.1498 25.5273 9.36076 25.4856 9.50403 25.4009C9.64573 25.3161 9.71815 25.1839 9.71815 25.0014C9.71815 24.8362 9.64572 24.7127 9.49931 24.6308Z" fill="white"/>
<path d="M9.41587 23.9799C9.54496 23.9109 9.60794 23.7917 9.60794 23.625C9.60794 23.4741 9.53867 23.3649 9.40012 23.2974C9.26158 23.2299 9.04117 23.1968 8.74046 23.1968H8.16267V24.0848H8.80501C9.08368 24.0848 9.28834 24.0488 9.41587 23.9799Z" fill="white"/>
<path d="M42.2083 26.8721L42.2068 26.6882C42.2068 26.658 42.1768 23.6968 42.1768 23.0589C42.1768 22.2773 41.6368 21.8103 40.7332 21.8103H26.8488L27.0078 22.079C27.2676 22.5201 27.3998 22.9986 27.3998 23.5014C27.3998 24.8161 26.471 25.9368 25.18 26.3448C25.8286 25.8894 26.2395 25.1796 26.2395 24.3693C26.2395 22.9612 24.9848 21.8161 23.4419 21.8161H5.79167V25.796C5.79167 26.4914 6.25296 26.875 7.09209 26.875L42.2083 26.8721ZM27.7982 23.5014C27.7982 23.0374 27.6974 22.5934 27.5006 22.1739H40.7347C41.418 22.1739 41.7801 22.4799 41.7801 23.0589C41.7801 23.6049 41.8022 25.8477 41.8084 26.5086H25.772C26.9732 25.9511 27.7982 24.8132 27.7982 23.5014ZM10.0377 25.7241C9.78111 25.8879 9.4253 25.9698 8.97031 25.9698H7.49671V22.7572H8.70739C9.26944 22.7572 9.67563 22.8218 9.92595 22.9512C10.1763 23.0805 10.3007 23.283 10.3007 23.5618C10.3007 23.75 10.2393 23.9052 10.1165 24.0302C9.99365 24.1552 9.81732 24.2328 9.58589 24.2658V24.2874C9.87242 24.3305 10.0834 24.4138 10.2188 24.5388C10.3542 24.6638 10.4219 24.8333 10.4219 25.0474C10.4203 25.3348 10.2928 25.5618 10.0377 25.7241ZM13.5958 25.9224L13.1597 25.0618H12.0529L12.2733 24.5546H12.9912L12.426 23.3693L11.2878 25.9224H10.6281L12.0954 22.7672H12.785L14.2838 25.9224H13.5958ZM17.8875 25.9224H17.2468L15.3245 23.6178V25.9224H14.7073V22.7672H15.3481L17.2704 25.023V22.7672H17.8875V25.9224ZM20.3183 25.4195C20.66 25.4109 20.9623 25.2701 21.1716 25.0532L21.5668 25.4167C21.2598 25.7213 20.8221 25.9181 20.3325 25.9296C19.3737 25.9526 18.5739 25.2601 18.5488 24.3851C18.5236 23.5101 19.2824 22.7802 20.2412 22.7572C20.8473 22.7428 21.3905 23.0144 21.7132 23.4382L21.2661 23.7457C21.0489 23.4497 20.6742 23.2572 20.2554 23.2672C19.6052 23.283 19.0903 23.7787 19.1077 24.3721C19.125 24.9655 19.6681 25.4353 20.3183 25.4195ZM23.604 25.9339C22.6453 25.9339 21.8659 25.2227 21.8659 24.3463C21.8659 23.4713 22.6453 22.7586 23.604 22.7586C24.5628 22.7586 25.3437 23.4713 25.3437 24.3463C25.3437 25.2227 24.5628 25.9339 23.604 25.9339Z" fill="white"/>
<path d="M23.604 23.2701C22.9538 23.2701 22.4248 23.7529 22.4248 24.3463C22.4248 24.9396 22.9538 25.4224 23.604 25.4224C24.2542 25.4224 24.7832 24.9396 24.7832 24.3463C24.7832 23.7543 24.2542 23.2701 23.604 23.2701Z" fill="white"/>
</svg>
