<svg width="48" height="48" viewBox="0 0 48 48" fill="none" xmlns="http://www.w3.org/2000/svg">
<rect width="48" height="48" rx="24" fill="white"/>
<path d="M11.872 20.4981H16.2155L14.0448 16.1034L11.872 20.4981Z" fill="#81338A"/>
<path d="M28.5189 20.4981H32.8624L30.6896 16.1034L28.5189 20.4981Z" fill="#81338A"/>
<path d="M20.2582 35.2932H24.6017L22.431 30.9007L20.2582 35.2932Z" fill="#81338A"/>
<path d="M11.872 27.2906H16.2155L14.0448 31.6853L11.872 27.2906Z" fill="#81338A"/>
<path d="M28.5189 27.2906H32.8624L30.6896 31.6853L28.5189 27.2906Z" fill="#81338A"/>
<path d="M20.2582 12.7028H24.6017L22.431 17.0974L20.2582 12.7028Z" fill="#81338A"/>
<path d="M39 23.3831H26.8373V24.6062H39V23.3831Z" fill="#81338A"/>
<path d="M22.1627 23.3831H10V24.6062H22.1627V23.3831Z" fill="#81338A"/>
<path d="M22.7169 24.6991L29.1887 13.0548L28.1434 12.4523L21.6716 24.0966L22.7169 24.6991Z" fill="#81338A"/>
<path d="M14.7978 39L20.7835 28.2303L19.7382 27.6278L13.7525 38.3975L14.7978 39Z" fill="#81338A"/>
<path d="M20.604 19.4641L14.7999 9L13.7522 9.60267L19.5563 20.0668L20.604 19.4641Z" fill="#81338A"/>
<path d="M29.0427 34.6766L23.0066 23.7941L21.9589 24.3968L27.995 35.2793L29.0427 34.6766Z" fill="#81338A"/>
</svg>
