<svg width="48" height="48" viewBox="0 0 48 48" fill="none" xmlns="http://www.w3.org/2000/svg">
<rect x="0.5" y="0.5" width="47" height="47" rx="23.5" stroke="white"/>
<path d="M47 24C47 36.7025 36.7025 47 24 47C11.2975 47 1 36.7025 1 24C1 11.2975 11.2975 1 24 1C36.7025 1 47 11.2975 47 24Z" fill="white"/>
<path d="M26.4758 44.8196C36.8978 43.788 45.0086 34.7262 45.0086 23.9478C45.0086 12.352 35.5364 2.87565 23.9434 2.87565C12.2938 2.87565 2.90517 12.352 2.90517 23.9478C2.90517 34.7262 10.9621 43.5156 21.4111 44.8196C21.9027 44.8778 22.3385 44.631 22.3385 43.9538C22.3385 43.3527 22.6656 28.299 22.6656 28.2754C22.6656 27.7591 22.4185 27.537 21.9036 27.5913C21.6313 27.6199 21.2485 27.7008 20.9492 27.7275C20.1092 28.5725 18.4448 29.066 17.167 29.066C16.7572 29.066 15.4265 28.9278 15.3995 28.3563C15.3995 28.1658 15.5343 28.1322 15.6699 28.1322C16.3 28.1322 16.6791 28.1924 17.5499 28.0838C17.7664 28.0572 17.9588 27.9723 17.9588 27.7828C17.9588 27.6495 17.8482 27.5903 17.6029 27.5646C17.0332 27.5064 14.9646 27.1836 14.9646 26.3139C14.9646 25.9586 15.4274 25.9586 15.8883 26.0662C16.5964 26.2587 18.0145 26.5311 19.1288 26.7206C19.2644 26.7463 19.3732 26.693 19.3732 26.5824C19.3732 26.4472 19.2644 26.3139 19.1288 26.23C18.8035 26.0415 18.1762 25.929 17.6038 25.846C17.3046 25.7957 17.088 25.7394 17.088 25.4946C17.088 25.1649 17.8779 24.9221 18.3407 24.9221C19.5386 24.9221 20.4335 25.4946 20.9781 26.4166C21.0868 26.6111 21.3052 26.6111 21.6332 26.6111C21.9585 26.6111 22.6675 26.5578 22.6675 26.5578V25.084C22.6675 24.7888 22.4519 24.5154 22.0124 24.4887C20.6259 24.4325 18.0396 24.3249 15.3187 23.5381C14.6105 24.7888 12.9518 25.7957 11.9992 25.7957C11.673 25.7957 11.3692 25.6052 11.3692 25.3051C11.3692 25.0613 11.4565 24.8945 11.832 24.6773C12.7073 24.163 13.3839 23.8905 13.7379 23.5875C14.0121 23.3427 13.5474 23.0229 13.1971 23.0229C13.0605 23.0229 12.9248 23.1028 12.8681 23.1808C12.5419 23.5875 11.5903 24.542 9.46505 24.542C9.08496 24.542 8.677 24.4068 8.677 24.0278C8.677 23.7247 9.00505 23.5885 9.11191 23.5618C9.82004 23.4256 10.7456 23.1581 11.2632 22.9093C11.3998 22.857 11.4556 22.7475 11.4556 22.6932C11.4556 22.5303 11.2902 22.5007 11.1248 22.5303C10.7456 22.6122 10.149 22.6932 9.70945 22.6932C8.94929 22.6932 6.60933 22.3654 6.5006 21.2737C6.5006 20.7841 7.01636 20.7308 7.39737 20.9499C8.15939 21.3852 9.08496 21.712 9.57656 21.712C9.79309 21.712 9.95664 21.631 9.95664 21.4938C9.95664 21.328 9.84699 21.2737 9.70945 21.1967C9.08497 20.8137 7.75143 20.024 6.98848 19.0724C6.71806 18.718 6.87975 18.336 7.28771 18.336C7.45313 18.336 7.58695 18.3923 7.77931 18.5018C8.10177 18.6894 8.51252 19.1267 8.75785 19.2343C8.92141 19.3192 9.13701 19.2343 9.03107 18.8799C8.86658 18.3923 8.43074 17.1386 8.24024 16.5108C8.15846 16.2137 8.29692 15.7823 8.73183 15.7823C8.94743 15.7823 9.08311 15.9422 9.16953 16.187C9.24573 16.3756 10.0375 18.3923 10.3888 19.0981C10.4454 19.2057 10.5254 19.2925 10.6341 19.2925C10.8246 19.2925 10.8813 19.1267 10.8534 18.9924C10.7726 18.4436 10.5021 18.0102 10.5021 17.3321C10.5021 16.9491 10.7456 16.647 11.1536 16.647C11.5058 16.647 11.6712 16.9185 11.6712 17.2768C11.6712 18.8296 12.2947 21.328 13.1683 21.328C13.3021 21.328 13.4406 21.249 13.4406 21.0575C13.4406 20.7308 13.1952 19.9707 13.1952 19.8039C13.1952 19.4761 13.3588 19.3429 13.5744 19.3429C13.9015 19.3429 14.2026 19.7496 14.3095 20.0753C14.5018 20.5649 14.421 21.9864 15.236 21.9864C15.4516 21.9864 15.6151 21.8433 15.6151 21.5244C15.6151 21.4405 15.5919 21.0565 15.5919 20.9716C15.5919 20.7831 15.6699 20.3754 16.1076 20.3754C16.3781 20.3754 16.5435 20.6182 16.6225 20.9193C16.8427 21.6537 17.0044 22.0644 17.2767 22.4444C17.469 22.6912 17.7125 22.7958 17.9318 22.7958C18.2041 22.7958 18.4179 22.5796 18.3677 22.3082C18.1753 21.5451 17.4151 21.0565 17.4151 20.2402C17.4151 19.9697 17.6038 19.642 18.0145 19.642C18.3138 19.642 18.4736 19.8848 18.5572 20.2402C18.7208 21.0851 19.3211 22.7455 20.4902 22.7455C20.6537 22.7455 20.8424 22.6626 20.8424 22.4444C20.8424 22.1187 20.4902 21.6004 20.4902 21.2184C20.4902 21.0851 20.6259 20.8127 21.0617 20.8127C21.3879 20.8127 21.6332 21.0565 21.6602 21.327C21.715 21.6547 21.715 22.2835 22.3134 22.2835C22.6675 22.2835 22.8812 22.0654 22.8812 21.63L22.937 19.2915C22.1787 19.8335 21.2791 20.1888 20.216 20.1888C19.7263 20.1888 19.1269 19.9973 19.1269 19.6153C19.1269 19.3438 19.3713 19.3438 19.5897 19.3438C19.7514 19.3438 19.8601 19.3192 20.216 19.2609C20.4632 19.2047 20.5422 19.0971 20.5422 18.9924C20.5422 18.8799 20.4623 18.799 20.216 18.7713C19.8871 18.7427 18.9652 18.6341 18.3119 18.4436C18.1734 18.4189 18.0647 18.4436 17.9848 18.5018C17.2209 18.8799 16.1067 19.0161 15.262 18.9924C14.6607 18.9608 13.1358 18.6637 13.1358 17.9007C13.1358 17.6815 13.2473 17.5196 13.4935 17.5196C13.8476 17.5196 14.2017 17.8454 14.9618 17.955C15.1542 17.9796 15.3428 17.9283 15.3428 17.7664C15.3428 17.6815 15.262 17.6006 15.0417 17.5196C13.9814 17.1376 10.9343 15.7507 9.19183 13.8702C8.86472 13.5178 9.08218 13.0272 9.43903 13.0272C9.65276 13.0272 9.76521 13.1082 9.84513 13.1664C10.1722 13.4073 10.9343 14.0104 11.2614 14.198C11.3431 14.2523 11.4231 14.2789 11.5048 14.2789C11.5606 14.2789 11.7223 14.198 11.6953 14.0104C11.5876 13.5998 11.398 13.2454 11.2883 12.7568C11.2056 12.3175 11.5048 12.0776 11.8608 12.0776C12.2148 12.0776 12.4871 12.3165 12.5391 12.891C12.6497 14.0864 13.0019 14.7666 13.4127 15.0133C13.6812 15.2345 14.0093 15.0676 13.9006 14.7666C13.7351 14.2226 13.5446 13.7084 13.5214 13.1645C13.5214 12.8387 13.5735 12.1833 14.0093 12.1833C14.3364 12.1833 14.3903 12.4014 14.5009 12.7805C14.6905 13.4882 15.0166 14.6066 15.2071 15.2068C15.3428 15.6915 15.5612 15.9383 15.8586 15.9383C16.077 15.9383 16.2424 15.7221 16.1876 15.3411C16.1587 15.1752 16.1058 14.7666 16.1058 14.5504C16.1058 14.2493 16.3232 14.0084 16.6485 14.0084C16.9775 14.0084 17.2479 14.2226 17.2748 14.6333C17.3018 15.3677 17.4672 16.3183 17.8463 16.7013C17.9839 16.8336 18.1186 16.8889 18.2255 16.8889C18.4708 16.8889 18.6084 16.729 18.6084 16.5069C18.6084 15.9649 18.3658 15.502 18.3658 14.9028C18.3658 14.6333 18.4987 14.3322 18.8286 14.3322C19.2068 14.3322 19.3973 14.6599 19.428 15.041C19.5079 15.6648 19.5627 16.9718 20.5422 16.9718C20.677 16.9718 20.8693 16.9155 20.9492 16.7832C21.0849 16.5078 21.0059 16.1011 20.9762 15.804C20.9492 15.5286 21.0598 15.2581 21.386 15.2581C21.7131 15.2581 21.8219 15.6105 21.9306 15.8307C21.9306 15.8307 22.201 16.3993 22.3636 16.7546C22.556 17.1643 23.1006 17.109 23.1006 16.6223V14.8751C23.1006 14.5504 22.8534 14.2769 22.4733 14.2769C19.099 14.2769 14.9627 12.6975 12.7826 9.87042C12.5122 9.51703 12.7585 8.94449 13.2222 8.94449C13.3579 8.94449 13.5214 8.99879 13.6264 9.16364C13.7649 9.35316 14.6905 10.441 14.9079 10.6048C15.0166 10.6858 15.1003 10.742 15.2071 10.742C15.4246 10.742 15.59 10.4963 15.4506 10.2238C15.235 9.62462 14.8512 8.8369 14.8512 7.99093C14.8512 7.69183 15.0417 7.36608 15.4506 7.36608C15.7787 7.36608 15.9134 7.64149 15.9701 7.8557L16.812 11.0421C16.8687 11.2287 16.9775 11.3689 17.1661 11.3689C17.3854 11.3689 17.4672 11.206 17.4384 10.9592C17.4133 10.4953 17.3306 9.3808 17.3306 8.53583C17.3306 8.18342 17.5183 8.04819 17.7934 8.04819C18.1186 8.04819 18.3379 8.31767 18.3379 8.67402C18.3379 9.24162 18.5257 12.4823 19.4531 12.4823C19.5618 12.4823 19.6705 12.4014 19.6417 12.2356C19.5897 11.7726 19.481 11.3689 19.481 10.8783C19.481 10.6581 19.5897 10.3334 19.9707 10.3334C20.2448 10.3334 20.4065 10.5199 20.4623 10.7954C20.5422 11.1793 20.5422 11.6917 20.677 12.128C20.7318 12.2938 20.8693 12.3748 21.005 12.3748C21.1119 12.3748 21.2243 12.2938 21.2243 12.1033V11.4242C21.2243 11.206 21.386 10.7954 21.8219 10.7954C22.1778 10.7954 22.3915 11.0668 22.3915 11.4242C22.3915 11.7499 22.2307 12.1842 22.2577 12.4014C22.2577 12.6442 22.5012 12.6985 22.6917 12.6985C22.8803 12.6985 23.2111 12.5909 23.2111 12.5633V10.4153C21.2792 10.3334 19.2635 9.29887 19.1 7.14694C19.073 6.84784 19.2635 6.43917 19.6993 6.43917C19.9428 6.43917 20.1621 6.57243 20.217 7.0117C20.3257 7.85471 20.6528 8.51016 21.1955 8.51016C21.413 8.51016 21.5524 8.34432 21.5226 8.09952C21.4697 7.72046 20.9511 6.79553 20.9511 6.43917C20.9511 6.11145 21.1416 5.81235 21.4975 5.81235C21.8246 5.81235 21.9585 6.11145 22.0672 6.43917L22.6099 8.45192C22.6684 8.67304 22.806 8.80827 22.9677 8.80827C23.213 8.80827 23.318 8.58814 23.318 8.34334C23.3487 7.74613 23.3487 6.16673 23.3487 6.16673C23.3487 5.43132 23.5643 4.99402 24.0568 4.99402C24.5707 4.99402 24.6813 5.37604 24.6813 5.81136C24.6813 5.81136 24.6543 7.03342 24.6543 7.60793C24.6543 7.90505 24.7919 8.0166 24.9536 8.0166C25.1143 8.0166 25.2528 7.90505 25.3058 7.71849L25.7435 6.02853C25.8252 5.70278 25.9591 5.51226 26.2332 5.51226C26.6161 5.51226 26.9413 5.81136 26.9413 6.24668C26.9413 6.73827 26.5585 7.68887 26.368 8.28806C26.2611 8.58716 26.4534 8.8063 26.669 8.8063C27.2954 8.8063 27.6234 7.66123 27.8121 7.14398C27.9478 6.76394 28.0853 6.62376 28.3269 6.62376C28.681 6.62376 28.7897 6.95544 28.7897 7.30686C28.7897 9.21299 27.3196 9.89312 25.3048 10.136C25.0372 10.1666 24.7909 10.3294 24.7909 10.7124V11.6344C24.7909 12.5603 25.0865 12.6946 25.4173 12.6946C25.8801 12.6946 26.0399 12.4784 26.2592 12.0154C26.3661 11.7687 26.5854 11.1744 26.6932 10.9799C26.8577 10.6542 26.9655 10.4114 27.2666 10.4114C27.6736 10.4114 27.8381 10.6808 27.8381 11.0382C27.8381 11.5278 27.5658 11.9621 27.4292 12.2899C27.3186 12.587 27.7266 12.8357 28.0546 12.4251C28.6261 11.9049 29.3854 10.6818 29.3854 8.97016C29.3854 8.64243 29.6316 8.369 29.9587 8.369C30.4215 8.369 30.5591 8.72338 30.5321 8.99583C30.4475 9.86844 30.0665 10.6828 29.903 11.279C29.8482 11.4735 29.9885 11.6087 30.179 11.6087C30.3676 11.6087 30.5042 11.5021 30.612 11.3669C31.2913 10.518 31.6742 8.67205 31.8387 7.88235C31.8898 7.60892 32.1082 7.39076 32.4093 7.39076C32.7903 7.39076 33.0356 7.66222 33.0356 8.01759C33.0356 8.75102 32.3275 9.83982 32.19 10.4143C32.1621 10.5496 32.137 10.7401 32.2987 10.821C32.4093 10.9 32.6546 10.7944 32.7615 10.7144C32.9808 10.5486 33.3042 10.2495 33.4715 10.1132C33.6322 9.97801 33.8237 9.8951 33.9343 9.8951C34.2316 9.8951 34.3952 10.0866 34.3952 10.3827C34.3952 10.4933 34.3431 10.6295 34.2595 10.7391C32.3284 13.1042 27.865 14.275 25.3327 14.275C24.9805 14.275 24.9248 14.4142 24.9248 14.6047V16.727C24.9248 17.0271 25.277 17.0508 25.3876 16.7517C25.4675 16.5049 25.5242 16.0725 25.5781 15.88C25.6617 15.5 25.8522 15.2038 26.2323 15.2038C26.6402 15.2038 26.8019 15.5 26.8019 15.7754C26.8019 15.9629 26.7508 16.1248 26.7508 16.3154C26.7508 16.5888 27.0212 16.5888 27.13 16.4535C27.2118 16.343 27.2935 16.0725 27.3474 15.8277C27.4292 15.5247 27.5379 15.3924 27.8102 15.3924C28.1113 15.3924 28.1894 15.6372 28.2172 15.9116L28.2739 16.6411C28.326 17.106 28.7367 17.0764 28.9821 16.6411C29.2794 16.0972 29.3612 15.4171 29.4997 14.6846C29.5508 14.3816 29.7431 14.1387 30.0154 14.1387C30.3983 14.1387 30.4234 14.4931 30.4234 14.7636C30.4234 15.3648 30.3983 15.7754 30.3983 16.4259C30.3983 16.5355 30.4234 16.6421 30.5619 16.6421C30.6139 16.6421 30.7217 16.6204 30.8035 16.5365C31.1334 16.2087 31.1334 15.4743 31.1845 14.9284C31.2124 14.6047 31.4568 14.3036 31.8127 14.3036C32.1928 14.3036 32.4121 14.6313 32.4121 14.9008C32.4121 15.1209 32.2764 15.3095 32.2504 15.4496C32.1918 15.6895 32.2755 15.88 32.5738 15.88C32.6844 15.88 32.8711 15.8011 32.9836 15.6372C33.4464 14.9551 33.5012 13.6511 33.7187 12.4251C33.7716 12.0993 33.9659 11.8526 34.292 11.8526C34.6154 11.8526 34.7771 12.1536 34.7771 12.4251C34.7771 13.4023 34.4231 14.3302 34.2344 15.0647C34.2075 15.1456 34.2075 15.3095 34.372 15.3095C34.4537 15.3095 34.5625 15.2552 34.6154 15.1723C35.0252 14.5741 35.9787 12.8357 36.3579 11.7973C36.4703 11.5002 36.6868 11.2257 37.0381 11.2257C37.368 11.2257 37.5539 11.4459 37.5539 11.746C37.5539 12.3126 36.3309 13.5948 36.3309 14.0055C36.3309 14.1151 36.4703 14.1674 36.6868 14.0825C36.9842 13.9492 37.2295 13.7587 37.473 13.5948C37.6384 13.4853 37.8559 13.3747 38.0176 13.3747C38.4804 13.3747 38.6458 13.7854 38.2917 14.0825C36.3588 15.8001 33.8543 17.0498 32.794 17.4318C32.6583 17.4881 32.6017 17.8711 33.0393 17.8711C33.8274 17.8711 34.5327 17.4318 34.8338 17.4318C35.0754 17.4318 35.1879 17.572 35.1879 17.7615C35.1879 18.5186 33.6908 19.0378 32.7392 19.0378C30.8862 19.0378 29.7171 18.413 29.7171 18.413C28.3594 18.7654 26.8596 18.9549 25.2798 18.9549C25.1162 18.9549 25.0093 19.0665 25.0093 19.1997V21.8156C25.0093 22.0338 25.1998 22.1147 25.3634 22.1147C25.5269 22.1147 25.6645 22.0338 25.7156 21.8699C25.8829 21.3546 26.2053 20.4524 26.2908 20.2056C26.3689 19.9648 26.5594 19.6933 26.8893 19.6933C27.2963 19.6933 27.3772 19.9914 27.3772 20.2056C27.3772 20.6745 26.9674 22.0604 26.8038 22.5481C26.722 22.8215 27.1049 22.9261 27.2684 22.6872L28.0305 21.4069C28.2191 21.0812 28.4096 20.8887 28.6819 20.8887C29.0648 20.8887 29.1995 21.1917 29.0648 21.5994L28.9272 21.9489C28.7116 22.4405 29.2265 22.5757 29.5275 22.3595C30.0154 21.9814 30.2859 21.0812 30.4243 20.2362C30.4773 19.9342 30.7217 19.6104 31.1064 19.6104C31.5711 19.6104 31.8127 19.9341 31.8127 20.2638C31.8127 21.0812 30.9707 21.5994 30.9707 22.1957C30.9707 22.4405 31.1575 22.5757 31.3759 22.5757C32.492 22.5757 33.1471 20.8887 33.5551 20.0714C33.7187 19.7456 33.9073 19.5571 34.2344 19.5571C34.5086 19.5571 34.6442 19.7456 34.6442 19.9924C34.6442 20.1049 34.5086 20.6745 34.4231 21.0526C34.3181 21.5205 34.6693 21.5994 35.0262 21.2145C35.5995 20.561 36.1683 19.0665 36.1683 17.2136C36.1683 16.8642 36.3588 16.6411 36.6878 16.6411C37.1208 16.6411 37.2853 17.0261 37.2853 17.2966C37.3122 17.8711 37.2035 18.4377 37.0929 18.9865C37.04 19.2866 37.4219 19.2866 37.5288 19.0911C37.9953 18.3301 38.3475 17.2136 38.7285 16.1801C38.8372 15.879 39.0556 15.7191 39.2963 15.7191C39.7897 15.7191 40.01 16.1801 39.8446 16.5621L38.6467 19.1741C38.4813 19.5275 38.8103 19.5827 38.972 19.4712C39.1625 19.3656 39.5184 18.8236 39.7907 18.4959C40.2284 17.95 41.2041 18.6292 40.7144 19.256C39.9793 20.1839 38.8372 20.8087 38.1551 21.1917C37.9126 21.323 38.0194 21.6774 38.2936 21.6251C38.8112 21.5205 39.8185 21.1621 40.7729 20.8087C41.2887 20.6153 41.5591 20.7515 41.5591 21.1098C41.5591 22.09 39.2191 22.549 38.3484 22.549C37.7183 22.549 37.2054 22.5254 36.7965 22.4681C36.4972 22.4414 36.4406 22.7702 36.5781 22.9034C36.9303 23.2854 37.7183 23.4779 38.2936 23.4779H38.6727C39.0017 23.4779 39.247 23.6388 39.247 23.9912C39.247 24.4019 38.8391 24.5904 38.4283 24.5904C36.2779 24.5904 35.4629 23.5322 35.1107 23.1216C34.8654 22.7919 34.4008 23.0387 34.595 23.5036C34.8115 23.9123 35.2724 24.6477 35.4936 24.9961C35.8151 25.4897 35.8151 25.6229 35.8151 25.7078C35.8151 26.0602 35.5196 26.1688 35.3561 26.1688C34.4268 26.1688 33.7224 24.6487 33.0421 23.4503C30.3463 24.2676 27.2722 24.4275 25.8587 24.4838C25.4229 24.5105 25.2835 24.7849 25.2835 25.079V26.2527C25.2835 26.4738 25.447 26.5242 25.5576 26.5242H26.1579C26.4572 26.5242 26.591 26.4729 26.7573 26.307C27.4088 25.7335 28.3325 24.9734 29.6688 24.9734C30.021 24.9734 30.3472 25.1106 30.4039 25.3258C30.455 25.5163 30.1009 25.7059 29.7218 25.8391C29.3129 26.006 28.9319 26.1422 28.6614 26.307C28.5221 26.386 28.4691 26.4413 28.4691 26.5518C28.4691 26.6604 28.5778 26.7137 28.7163 26.7137C29.3417 26.7394 30.4819 26.4966 31.1901 26.1669C31.4354 26.0593 31.7133 25.922 31.8731 25.922C32.1166 25.922 32.282 26.0859 32.282 26.3376C32.282 27.4215 28.5797 27.611 28.0091 27.611C28.5536 28.2665 29.9113 28.1243 30.8369 28.0197C31.2458 27.9634 31.4921 27.9387 31.4921 28.2359C31.4921 28.7817 30.1873 29.0266 29.4541 29.0266C28.1726 29.0266 27.1383 28.7294 26.1849 27.8045H25.5855C25.368 27.8045 25.3411 27.8045 25.3411 28.0493C25.3411 28.0493 25.5855 42.4741 25.5855 43.9144C25.5771 44.4395 25.7955 44.8768 26.4758 44.8196ZM1 24C1 36.6845 11.317 47 24 47C36.683 47 47 36.6845 47 24C47 11.3174 36.683 1 24 1C11.317 1 1 11.3174 1 24ZM2.1162 23.9991C2.1162 11.9128 11.9137 2.11656 24.0001 2.11656C36.0809 2.11656 45.8822 11.9128 45.8822 23.9991C45.8822 36.0835 36.0809 45.8817 24.0001 45.8817C11.9137 45.8817 2.1162 36.0835 2.1162 23.9991Z" fill="#008EC6"/>
</svg>
