<svg width="48" height="48" viewBox="0 0 48 48" fill="none" xmlns="http://www.w3.org/2000/svg">
<rect width="48" height="48" rx="24" fill="white"/>
<path d="M23.999 20.6624L20.6796 14.8322L23.999 9L27.3183 14.8322L23.999 20.6624Z" fill="#F9DD38"/>
<path d="M27.3363 24L33.1682 20.6804L39 24L33.1682 27.3216L27.3363 24Z" fill="#F9DD38"/>
<path d="M26.3597 26.3608L32.8306 28.1345L34.6041 34.6058L28.1332 32.8322L26.3597 26.3608Z" fill="#F9DD38"/>
<path d="M23.999 27.3376L27.3183 33.1698L23.999 39L20.6796 33.1698L23.999 27.3376Z" fill="#F9DD38"/>
<path d="M21.6403 26.3608L19.8648 32.8322L13.3938 34.6058L15.1674 28.1345L21.6403 26.3608Z" fill="#F9DD38"/>
<path d="M20.6617 24L14.8318 27.3216L9 24L14.8318 20.6804L20.6617 24Z" fill="#F9DD38"/>
<path d="M21.6403 21.6391L15.1674 19.8655L13.3938 13.3941L19.8648 15.1678L21.6403 21.6391Z" fill="#F9DD38"/>
<path d="M26.3597 21.6391L28.1332 15.1678L34.6041 13.3941L32.8306 19.8655L26.3597 21.6391Z" fill="#F9DD38"/>
</svg>
