<svg width="48" height="48" viewBox="0 0 48 48" fill="none" xmlns="http://www.w3.org/2000/svg">
<rect x="0.5" y="0.5" width="47" height="47" rx="23.5" stroke="white"/>
<path d="M1 24C1 36.7025 11.2975 47 24 47C36.7025 47 47 36.7025 47 24C47 11.2975 36.7025 1 24 1C11.2975 1 1 11.2975 1 24Z" fill="#005F5A"/>
<path d="M38.5015 29.543L33.6715 24.713C28.2895 29.9915 19.676 29.9685 14.34 24.6325L9.4985 29.474C17.491 37.455 30.4975 37.478 38.5015 29.543Z" fill="#F0643C"/>
<path d="M28.439 18.641C28.8875 18.0085 29.1405 17.2495 29.1405 16.433C29.1405 14.271 27.3695 12.523 25.1845 12.523H19.0205V26.1735H25.9435C28.2895 26.1735 30.1755 24.3105 30.1755 22.0105C30.1755 20.6305 29.497 19.4 28.439 18.641ZM21.654 15.007H25.1155C25.9205 15.007 26.576 15.651 26.576 16.433C26.576 17.2035 25.9205 17.8245 25.1155 17.8245H21.654V15.007ZM25.8745 23.701H21.654V20.32H25.8745C26.8405 20.32 27.6225 21.0905 27.6225 22.0335C27.6225 22.942 26.8405 23.701 25.8745 23.701Z" fill="white"/>
</svg>
