<svg width="48" height="48" viewBox="0 0 48 48" fill="none" xmlns="http://www.w3.org/2000/svg">
<rect width="48" height="48" rx="24" fill="white"/>
<path fill-rule="evenodd" clip-rule="evenodd" d="M39.7195 17.0713C38.9573 16.0425 38.3452 15.0028 37.4188 13.9645C37.4148 13.9645 37.4075 13.9571 37.4035 13.953C37.1516 13.655 36.84 13.4159 36.4897 13.2519C36.1394 13.0878 35.7586 13.0027 35.3733 13.0023C35.3487 13.0023 35.3274 13.0084 35.3022 13.0084C35.0516 12.9982 34.8071 12.9996 34.4648 13.0009H34.423C34.2804 13.0067 34.1421 13.0522 34.0229 13.1324C33.9037 13.2126 33.8082 13.3245 33.7467 13.456C33.6852 13.5876 33.6599 13.7338 33.6737 13.8789C33.6875 14.0241 33.7397 14.1626 33.8249 14.2796C33.8343 14.3067 33.8477 14.3321 33.8647 14.355C34.1159 14.6945 34.3346 15.0171 34.6436 15.4721C34.6436 15.4721 10.409 15.4782 10.3206 15.4836H10.3146C10.298 15.4836 10.2827 15.489 10.2661 15.489C10.1996 15.4938 10.1332 15.5006 10.0707 15.5094C9.48146 15.5726 8.93844 15.8645 8.55371 16.325C8.16899 16.7854 7.97194 17.3792 8.00323 17.9838C8.03452 18.5884 8.29177 19.1576 8.72188 19.574C9.15199 19.9904 9.72212 20.2222 10.3146 20.2215H34.6376C34.2562 20.7444 34.0614 21.0099 33.7737 21.4099C33.7704 21.4146 33.7737 21.4173 33.7684 21.4214C33.6921 21.539 33.6477 21.6752 33.6394 21.816C33.6311 21.9568 33.6593 22.0974 33.7212 22.2235C33.7831 22.3496 33.8764 22.4569 33.9918 22.5343C34.1072 22.6118 34.2406 22.6568 34.3784 22.6648H34.4057C34.4123 22.6648 34.4176 22.6648 34.425 22.6648H34.4422C34.7326 22.6648 35.0649 22.6648 35.354 22.6648C35.3584 22.6645 35.3629 22.6645 35.3673 22.6648H35.3733C35.7577 22.6645 36.1376 22.5802 36.4875 22.4174C36.8373 22.2546 37.149 22.0171 37.4015 21.7209C37.4055 21.7161 37.4142 21.7148 37.4155 21.7114C38.3605 20.65 38.9792 19.5893 39.7621 18.5408C39.9233 18.3277 40.0073 18.0641 39.9995 17.7949C39.9917 17.5256 39.8928 17.2675 39.7195 17.0645V17.0713Z" fill="#E1001E"/>
<path fill-rule="evenodd" clip-rule="evenodd" d="M31.6936 24.2226C31.6936 24.009 31.6106 23.804 31.4628 23.6529C31.315 23.5018 31.1145 23.4167 30.9054 23.4166C30.8934 23.4166 30.8821 23.4166 30.8702 23.42L10.8004 23.4145C10.6602 23.4145 10.5346 23.4145 10.4216 23.4247C10.3844 23.4247 10.3485 23.4132 10.3106 23.4132C9.71735 23.4127 9.14744 23.6493 8.72266 24.0725C8.29789 24.4957 8.05193 25.0718 8.03735 25.6779C8.02278 26.2839 8.24073 26.8717 8.64464 27.3157C9.04856 27.7597 9.60639 28.0246 10.1989 28.0539C10.1989 28.0601 10.195 28.0669 10.193 28.073L26.5698 28.0899C29.1197 28.1157 30.284 26.4873 31.554 24.6885C31.5645 24.6734 31.5711 24.6559 31.5733 24.6375C31.6499 24.5131 31.6915 24.3696 31.6936 24.2226Z" fill="#5C5D5F"/>
<path fill-rule="evenodd" clip-rule="evenodd" d="M26.7739 32.5629C26.7788 32.5543 26.7832 32.5455 26.7872 32.5364C26.8579 32.415 26.8955 32.2764 26.8962 32.1351C26.8962 31.9213 26.813 31.7163 26.6651 31.5652C26.5172 31.414 26.3165 31.3291 26.1073 31.3291L10.9234 31.3223C10.7553 31.3191 10.5871 31.3254 10.4196 31.3413C10.3831 31.3413 10.3492 31.3304 10.312 31.3304C9.71857 31.3294 9.1483 31.5656 8.72312 31.9887C8.29793 32.4117 8.05157 32.9879 8.03673 33.5941C8.02189 34.2003 8.23973 34.7884 8.64368 35.2326C9.04762 35.6768 9.60563 35.9419 10.1984 35.9712C10.1966 35.9749 10.1952 35.9787 10.1944 35.9827H10.3147L21.7664 35.9997C24.3103 36.0248 25.468 34.3998 26.744 32.6139C26.7499 32.6044 26.7526 32.5976 26.7586 32.5887L26.7739 32.5629Z" fill="#B9BBBC"/>
</svg>
