<svg width="48" height="48" viewBox="0 0 48 48" fill="none" xmlns="http://www.w3.org/2000/svg">
<rect width="48" height="48" rx="24" fill="white"/>
<path d="M11.4332 21.099C11.7585 20.9435 11.8847 20.6731 11.8847 20.3824C11.8847 19.7312 11.3503 19.4307 10.7043 19.4307L9.02874 19.4311L9.02912 22.9382C9.58282 22.9382 10.1852 22.9382 10.7339 22.9378C11.4138 22.9378 11.8706 22.6819 11.9724 22.1158C12.045 21.7102 11.8653 21.2593 11.4332 21.099ZM9.77207 20.1074H10.7047C10.9912 20.1074 11.1368 20.2578 11.1371 20.4631C11.1371 20.6684 10.9916 20.7938 10.6952 20.7938H9.77245L9.77207 20.1074ZM10.7047 22.2568H9.77207V21.4454C10.0731 21.4454 10.3938 21.4454 10.6948 21.4454C11.03 21.4454 11.2048 21.6107 11.2048 21.856C11.2052 22.1013 11.0448 22.2564 10.7047 22.2568Z" fill="#FF944A"/>
<path d="M14.4491 19.4307H13.6232L12.0986 22.9382H12.9145L13.1623 22.3367L14.9058 22.3363L15.1536 22.9374H15.9745L14.4491 19.4307ZM13.4488 21.6456L14.0363 20.2226L14.6193 21.6452L13.4488 21.6456Z" fill="#FF944A"/>
<path d="M18.6993 21.7099L18.6506 20.6077V19.4303H19.413L19.4137 22.9374H18.7627L17.0724 20.6931L17.1016 21.8454V22.9374L16.3344 22.9378L16.334 19.4307L16.9846 19.4303L18.6993 21.7099Z" fill="#FF944A"/>
<path d="M23.1 22.5105C22.7504 22.8662 22.2985 23.0265 21.7935 23.0265C20.4968 23.0269 19.9819 22.1649 19.9769 21.2081C19.972 20.3011 20.5451 19.3494 21.7931 19.349C22.2594 19.349 22.6915 19.5343 23.0415 19.8897L22.5657 20.3759C22.3616 20.1706 22.0656 20.0852 21.7935 20.0852C21.0212 20.0852 20.7203 20.7015 20.7252 21.2124C20.7301 21.7233 20.9973 22.3048 21.7938 22.3044C22.0659 22.3044 22.4254 22.179 22.6291 21.9686L23.1 22.5105Z" fill="#FF944A"/>
<path d="M25.101 19.344C24.013 19.344 23.2651 20.0406 23.2654 21.1827C23.2654 22.3248 24.0137 23.0215 25.1014 23.0211C26.1894 23.0207 26.9373 22.3244 26.9369 21.1819C26.9369 20.0402 26.189 19.344 25.101 19.344ZM25.1014 22.315C24.4553 22.315 24.0084 21.8394 24.0084 21.1827C24.0084 20.5464 24.4553 20.0453 25.101 20.0453C25.7615 20.0453 26.1939 20.5409 26.1939 21.1823C26.1943 21.8339 25.7619 22.315 25.1014 22.315Z" fill="#FF944A"/>
<path d="M10.4236 24.8023H9.02966L9.03004 28.3093C9.45758 28.3093 9.99646 28.3093 10.424 28.3093C11.6139 28.3093 12.114 27.4474 12.114 26.5305C12.114 25.6137 11.5941 24.8019 10.4236 24.8023ZM10.424 27.5876H9.77794L9.77756 25.5083H10.4236C11.1327 25.5083 11.3661 26.0141 11.3661 26.5204C11.3661 27.0266 11.162 27.5876 10.424 27.5876Z" fill="#FF944A"/>
<path d="M15.276 28.3089L12.6872 28.3093C12.6872 27.1422 12.6868 25.9695 12.6868 24.8023L15.2076 24.8019V25.5181L13.4298 25.5185V26.1948L15.1053 26.1944V26.8808H13.4298V27.5872L15.2756 27.5869L15.276 28.3089Z" fill="#FF944A"/>
<path d="M16.6308 24.8019L16.6312 27.5923H18.3311V28.3086L15.8734 28.3089L15.873 24.8019H16.6308Z" fill="#FF944A"/>
<path d="M21.8183 25.6479C21.6291 25.4426 21.2984 25.3525 21.0313 25.3525C20.6961 25.3525 20.4244 25.4978 20.4244 25.7384C20.4244 26.0589 20.7208 26.1192 21.1578 26.1592C21.8282 26.2191 22.4644 26.4848 22.4644 27.2962C22.4644 28.0779 21.7651 28.4187 21.0317 28.4238C20.4441 28.4289 19.8319 28.1935 19.5454 27.7025L19.9968 27.2163C20.2591 27.5619 20.6915 27.7123 21.0362 27.7119C21.4394 27.7119 21.7161 27.5466 21.7161 27.2958C21.721 27.0004 21.4926 26.8648 21.0313 26.8249C20.3123 26.7547 19.6712 26.5694 19.681 25.7431C19.686 25.0469 20.3267 24.6758 21.0263 24.6758C21.5508 24.6758 21.9441 24.7961 22.2941 25.2169L21.8183 25.6479Z" fill="#FF944A"/>
<path d="M24.6254 24.7155C23.5374 24.7155 22.7895 25.4122 22.7899 26.5543C22.7899 27.6968 23.5382 28.393 24.6262 28.3926C25.7142 28.3922 26.4621 27.696 26.4617 26.5535C26.4613 25.4114 25.7135 24.7151 24.6254 24.7155ZM24.6258 27.6862C23.9798 27.6862 23.5328 27.2106 23.5328 26.5539C23.5328 25.9176 23.9798 25.4165 24.6254 25.4165C25.2859 25.4165 25.7184 25.9121 25.7184 26.5535C25.7184 27.2051 25.2863 27.6862 24.6258 27.6862Z" fill="#FF944A"/>
<path d="M27.7827 24.8004L27.7831 27.5908H29.483V28.307L27.0253 28.3074L27.0249 24.8004H27.7827Z" fill="#FF944A"/>
<path d="M33.6564 22.5481C32.7831 23.4751 31.4925 23.7055 30.368 23.1354L30.2263 23.0633L29.806 23.9457L29.9477 24.0178C31.4496 24.7794 33.1738 24.4715 34.3401 23.2334L34.4503 23.1166L33.7666 22.4314L33.6564 22.5481ZM35.1606 21.8362L35.1628 21.9992C35.1807 23.2914 34.4264 24.3963 33.2403 24.8131L33.0909 24.8656L33.3984 25.7962L33.5481 25.7437C35.1321 25.1865 36.1403 23.7114 36.116 21.9851L36.1137 21.8221L35.1606 21.8362ZM28.534 20.0174L28.5849 20.1718C29.1249 21.806 30.555 22.8455 32.2286 22.8208L32.3867 22.8185L32.3731 21.8354L32.215 21.8378C30.962 21.8562 29.8915 21.0781 29.4871 19.8545L29.4362 19.7001L28.534 20.0174ZM35.7382 20.3983L35.8515 20.5119C36.7502 21.4127 36.9737 22.744 36.4207 23.9041L36.3512 24.0503L37.2066 24.484L37.2762 24.3379C38.0146 22.7883 37.7159 21.0099 36.5157 19.807L36.4025 19.6934L35.7382 20.3983ZM35.3054 17.975L35.1473 17.9773L35.1609 18.9604L35.319 18.958C36.572 18.9392 37.6425 19.7177 38.0469 20.9413L38.0978 21.0957L39 20.7787L38.9491 20.6244C38.4155 19.0093 37.0121 17.975 35.3639 17.975C35.3441 17.9746 35.3251 17.9746 35.3054 17.975ZM33.1939 17.5628L33.0837 17.6796L33.7674 18.3644L33.8776 18.2477C34.7505 17.3207 36.0415 17.0903 37.166 17.6604L37.3077 17.7324L37.728 16.8501L37.5863 16.778C37.0387 16.5002 36.461 16.3647 35.8921 16.3647C34.901 16.3647 33.935 16.776 33.1939 17.5628ZM30.2578 16.4579C29.5194 18.0075 29.8181 19.7859 31.0183 20.9887L31.1315 21.1024L31.7958 20.3971L31.6825 20.2835C30.7838 19.3827 30.5603 18.0514 31.1133 16.8912L31.1832 16.7447L30.3274 16.3118L30.2578 16.4579ZM33.9863 15.0525C32.4019 15.6096 31.3941 17.0848 31.418 18.8111L31.4203 18.9741L32.3731 18.96L32.3708 18.797C32.3529 17.5044 33.1077 16.3999 34.2933 15.983L34.4431 15.9305L34.1356 15L33.9863 15.0525Z" fill="#FF944A"/>
<path d="M10.5414 30.9662V32.9644H10.0762V32.7759C10.0276 32.8441 9.96793 32.8958 9.89725 32.9307C9.82656 32.9656 9.74714 32.9832 9.65821 32.9832C9.52748 32.9832 9.41271 32.9519 9.31352 32.8888C9.21434 32.8261 9.13719 32.7375 9.08247 32.6235C9.02774 32.5095 9 32.3783 9 32.229C9 32.0817 9.02698 31.9528 9.08095 31.8411C9.13491 31.7298 9.21054 31.6436 9.3082 31.5825C9.40587 31.5214 9.51874 31.4908 9.64757 31.4908C9.73802 31.4908 9.81934 31.5088 9.89193 31.5445C9.96413 31.5805 10.0257 31.6315 10.0762 31.6981V30.9658L10.5414 30.9662ZM9.99264 32.5052C10.0485 32.4378 10.0762 32.3504 10.0762 32.2427C10.0762 32.1334 10.0485 32.0452 9.99264 31.9786C9.93677 31.9124 9.86381 31.8791 9.77336 31.8791C9.68291 31.8791 9.60919 31.9128 9.55256 31.9802C9.49594 32.0476 9.46782 32.1349 9.46782 32.2427C9.46782 32.3504 9.49594 32.4378 9.55256 32.5052C9.60919 32.5726 9.68253 32.6063 9.77336 32.6063C9.86381 32.6063 9.93715 32.5726 9.99264 32.5052Z" fill="#FF944A"/>
<path d="M12.111 31.7018C12.2345 31.8417 12.2964 32.0341 12.2964 32.2782C12.2964 32.3158 12.2956 32.3448 12.2937 32.3644H11.3118C11.3342 32.447 11.3737 32.5101 11.4292 32.5544C11.485 32.5983 11.5527 32.6202 11.6329 32.6202C11.6937 32.6202 11.7526 32.6077 11.8092 32.5826C11.8658 32.5575 11.9175 32.5207 11.9646 32.4721L12.2075 32.7225C12.1345 32.8067 12.046 32.871 11.9422 32.9148C11.8385 32.9587 11.7214 32.9807 11.5911 32.9807C11.4394 32.9807 11.3072 32.9501 11.1939 32.889C11.0807 32.8279 10.994 32.7417 10.934 32.6304C10.874 32.5191 10.8439 32.3898 10.8439 32.2425C10.8439 32.0936 10.8743 31.962 10.9355 31.848C10.9963 31.7339 11.0826 31.6458 11.1939 31.5839C11.3053 31.522 11.4341 31.491 11.5804 31.491C11.8107 31.4918 11.9874 31.5616 12.111 31.7018ZM11.8446 32.1081C11.8446 32.0239 11.8206 31.9561 11.7727 31.9048C11.7248 31.8534 11.6618 31.828 11.5835 31.828C11.5105 31.828 11.4489 31.8531 11.3992 31.9032C11.3494 31.9534 11.3171 32.0215 11.3011 32.1077L11.8446 32.1081Z" fill="#FF944A"/>
<path d="M14.1627 31.5003C14.0521 31.4627 13.9594 31.4439 13.8846 31.4439C13.8253 31.4439 13.7789 31.4552 13.7447 31.4776C13.7109 31.4999 13.6938 31.5328 13.6938 31.5759C13.6938 31.6171 13.7086 31.6519 13.7382 31.6797C13.7679 31.7076 13.8044 31.7299 13.8481 31.7471C13.8914 31.7644 13.956 31.7863 14.0415 31.813C14.1684 31.8506 14.2733 31.8882 14.3562 31.9262C14.439 31.9638 14.5097 32.0218 14.569 32.0998C14.6283 32.1777 14.6579 32.2796 14.6579 32.4054C14.6579 32.5311 14.6256 32.6385 14.5614 32.727C14.4968 32.816 14.4086 32.883 14.2961 32.9276C14.1836 32.9723 14.059 32.995 13.9214 32.995C13.7698 32.995 13.6189 32.9676 13.4684 32.9128C13.3179 32.8579 13.1876 32.7831 13.0778 32.6879L13.2632 32.3027C13.3556 32.3869 13.4646 32.4563 13.5912 32.51C13.7173 32.5637 13.8295 32.5907 13.9267 32.5907C13.9982 32.5907 14.0544 32.5774 14.0951 32.5503C14.1361 32.5233 14.1563 32.4837 14.1563 32.432C14.1563 32.3889 14.1411 32.3529 14.1107 32.3243C14.0803 32.2957 14.0419 32.2725 13.9959 32.2557C13.9499 32.2388 13.8849 32.2185 13.8013 32.195C13.6759 32.1589 13.5722 32.1229 13.4905 32.086C13.4088 32.0492 13.3385 31.9936 13.2803 31.9191C13.2218 31.8447 13.1929 31.7456 13.1929 31.6218C13.1929 31.505 13.2229 31.4027 13.283 31.3146C13.343 31.2268 13.4285 31.159 13.5391 31.1112C13.6497 31.0638 13.7781 31.0399 13.9245 31.0399C14.0567 31.0399 14.1874 31.0591 14.3163 31.0979C14.4451 31.1367 14.5583 31.188 14.6556 31.2527L14.4755 31.6457C14.3775 31.5865 14.2733 31.5379 14.1627 31.5003Z" fill="#FF944A"/>
<path d="M16.2873 32.9647L16.1619 32.6308H15.3703L15.2423 32.9647H14.7513L15.5375 31.0769H16.0285L16.7966 32.9647H16.2873ZM15.5144 32.2539H16.0209L15.7701 31.5808L15.5144 32.2539Z" fill="#FF944A"/>
<path d="M18.2621 31.0769H18.7059V32.9647H18.2879L17.4572 31.8363V32.9647H17.0106V31.0769H17.4313L18.2643 32.2132L18.2621 31.0769Z" fill="#FF944A"/>
<path d="M20.2259 31.5335C20.1442 31.4876 20.0629 31.4649 19.9831 31.4649C19.8907 31.4649 19.8067 31.4888 19.7311 31.5362C19.6555 31.5836 19.5958 31.6495 19.5521 31.7329C19.5084 31.8164 19.4867 31.9092 19.4867 32.0115C19.4867 32.1137 19.5084 32.2066 19.5521 32.2901C19.5958 32.3735 19.6551 32.4389 19.7311 32.4867C19.8071 32.5345 19.8907 32.5581 19.9831 32.5581C20.0579 32.5581 20.1362 32.5385 20.2183 32.4989C20.3 32.4593 20.3734 32.4056 20.4376 32.3375L20.7169 32.647C20.6177 32.7547 20.4995 32.8405 20.3631 32.904C20.2263 32.9679 20.091 32.9996 19.9568 32.9996C19.7756 32.9996 19.6122 32.9565 19.4658 32.8703C19.3195 32.7841 19.2048 32.6666 19.1212 32.5177C19.0375 32.3688 18.9957 32.2019 18.9957 32.017C18.9957 31.834 19.0383 31.6687 19.1238 31.5213C19.2089 31.374 19.3264 31.2584 19.475 31.1738C19.6239 31.0896 19.7904 31.0473 19.9751 31.0473C20.1108 31.0473 20.2449 31.0766 20.3772 31.1346C20.5094 31.193 20.6219 31.2725 20.7142 31.3728L20.4372 31.7176C20.3783 31.6408 20.308 31.5793 20.2259 31.5335Z" fill="#FF944A"/>
<path d="M22.317 31.1742C22.4675 31.2584 22.586 31.3744 22.6723 31.5217C22.7586 31.669 22.8015 31.834 22.8015 32.0174C22.8015 32.2023 22.7586 32.3692 22.6723 32.5181C22.586 32.667 22.4678 32.7845 22.317 32.8707C22.1665 32.9569 21.9977 33 21.8115 33C21.6253 33 21.4566 32.9573 21.3061 32.8723C21.1556 32.7869 21.037 32.6693 20.9508 32.5196C20.8645 32.3696 20.8215 32.2023 20.8215 32.0174C20.8215 31.8344 20.8645 31.669 20.9508 31.5217C21.037 31.3744 21.1552 31.2588 21.3061 31.1742C21.4566 31.09 21.6253 31.0476 21.8115 31.0476C21.9981 31.0476 22.1665 31.0896 22.317 31.1742ZM21.5649 31.5374C21.4874 31.586 21.4262 31.6526 21.3806 31.738C21.3353 31.8234 21.3125 31.9171 21.3125 32.0193C21.3125 32.1235 21.3357 32.2183 21.3817 32.3034C21.4277 32.3888 21.4893 32.4558 21.566 32.5051C21.6428 32.5545 21.726 32.5792 21.8168 32.5792C21.9073 32.5792 21.9905 32.5545 22.0661 32.5051C22.1418 32.4558 22.2014 32.3884 22.2451 32.3034C22.2885 32.218 22.3105 32.1235 22.3105 32.0193C22.3105 31.9171 22.2888 31.823 22.2451 31.738C22.2014 31.6526 22.1421 31.586 22.0661 31.5374C21.9901 31.4888 21.9073 31.4645 21.8168 31.4645C21.7264 31.4649 21.6424 31.4892 21.5649 31.5374Z" fill="#FF944A"/>
<path d="M24.1887 32.9647L23.9223 32.4424H23.5669V32.9647H23.0889V31.0769H23.9116C24.1537 31.0769 24.3414 31.1349 24.4744 31.2505C24.6075 31.3665 24.6743 31.5291 24.6743 31.7391C24.6743 31.8809 24.6466 32.0036 24.5907 32.1066C24.5349 32.21 24.4539 32.2904 24.3479 32.3476L24.7291 32.9643L24.1887 32.9647ZM23.5669 32.049H23.9143C24.0119 32.049 24.0872 32.0239 24.14 31.9738C24.1932 31.9236 24.2198 31.8508 24.2198 31.7555C24.2198 31.6639 24.1932 31.5937 24.14 31.544C24.0868 31.4946 24.0116 31.4699 23.9143 31.4699H23.5669V32.049Z" fill="#FF944A"/>
<path d="M26.6082 31.5003C26.4977 31.4627 26.4049 31.4439 26.3301 31.4439C26.2708 31.4439 26.2244 31.4552 26.1902 31.4776C26.1564 31.4999 26.1393 31.5328 26.1393 31.5759C26.1393 31.6171 26.1541 31.6519 26.1838 31.6797C26.2134 31.7076 26.2499 31.7299 26.2936 31.7471C26.3369 31.7644 26.4015 31.7863 26.487 31.813C26.6139 31.8506 26.7192 31.8882 26.8017 31.9262C26.8845 31.9638 26.9552 32.0218 27.0145 32.0998C27.0738 32.1777 27.1034 32.2796 27.1034 32.4054C27.1034 32.5311 27.0711 32.6385 27.0069 32.727C26.9423 32.816 26.8541 32.883 26.7416 32.9276C26.6291 32.9723 26.5045 32.995 26.3669 32.995C26.2153 32.995 26.0644 32.9676 25.9139 32.9128C25.7634 32.8579 25.6331 32.7831 25.5233 32.6879L25.7087 32.3027C25.8011 32.3869 25.9101 32.4563 26.0367 32.51C26.1628 32.5637 26.2746 32.5907 26.3722 32.5907C26.4437 32.5907 26.4999 32.5774 26.5406 32.5503C26.5816 32.5233 26.6022 32.4837 26.6022 32.432C26.6022 32.3889 26.587 32.3529 26.5566 32.3243C26.5262 32.2957 26.4878 32.2725 26.4418 32.2557C26.3958 32.2388 26.3308 32.2185 26.2472 32.195C26.1218 32.1589 26.0181 32.1229 25.9364 32.086C25.8546 32.0492 25.7843 31.9936 25.7262 31.9191C25.6681 31.8447 25.6388 31.7456 25.6388 31.6218C25.6388 31.505 25.6688 31.4027 25.7289 31.3146C25.7889 31.2268 25.8744 31.159 25.985 31.1112C26.0956 31.0638 26.224 31.0399 26.3703 31.0399C26.5026 31.0399 26.6333 31.0591 26.7622 31.0979C26.891 31.1367 27.0042 31.188 27.1015 31.2527L26.9214 31.6457C26.823 31.5865 26.7188 31.5379 26.6082 31.5003Z" fill="#FF944A"/>
<path d="M27.3957 31.0769H28.8402V31.4699H27.8738V31.8225H28.7463V32.2132L27.8738 32.2159V32.5713H28.8664V32.9643H27.3957V31.0769Z" fill="#FF944A"/>
<path d="M30.4204 32.0009H30.8331V32.7524C30.7354 32.826 30.6157 32.8856 30.474 32.9314C30.3318 32.9773 30.1973 33 30.0704 33C29.8857 33 29.7192 32.9573 29.5703 32.8723C29.4213 32.7868 29.3042 32.6697 29.2191 32.5208C29.1336 32.3719 29.091 32.205 29.091 32.0201C29.091 31.8371 29.1351 31.6714 29.2229 31.5233C29.3107 31.3752 29.4319 31.2588 29.5858 31.1746C29.7398 31.0903 29.9119 31.048 30.1015 31.048C30.2372 31.048 30.3733 31.0735 30.5089 31.1248C30.6446 31.1761 30.7597 31.2447 30.8536 31.3309L30.5819 31.6757C30.5158 31.611 30.4394 31.5597 30.3535 31.5221C30.2672 31.4845 30.1825 31.4657 30.0989 31.4657C30.0012 31.4657 29.9134 31.49 29.8351 31.5386C29.7569 31.5871 29.6949 31.6534 29.6497 31.738C29.6045 31.8222 29.5817 31.9167 29.5817 32.0209C29.5817 32.1267 29.6041 32.2223 29.6497 32.3077C29.6949 32.3931 29.7576 32.4597 29.8378 32.5083C29.918 32.5569 30.0065 32.5812 30.1042 32.5812C30.1965 32.5812 30.3018 32.5506 30.4204 32.4895V32.0009Z" fill="#FF944A"/>
<path d="M31.7475 32.4718C31.8155 32.5435 31.9018 32.5795 32.0059 32.5795C32.1085 32.5795 32.1918 32.5442 32.2552 32.4733C32.3187 32.4024 32.3506 32.3068 32.3506 32.1865V31.0769H32.8287V32.1865C32.8287 32.3499 32.7952 32.4933 32.728 32.6159C32.6611 32.739 32.5649 32.8338 32.4407 32.9C32.316 32.9662 32.1705 32.9995 32.0033 32.9995C31.836 32.9995 31.6894 32.9662 31.5632 32.9C31.437 32.8338 31.3393 32.739 31.2706 32.6159C31.2018 32.4929 31.1676 32.3499 31.1676 32.1865V31.0769H31.6457V32.1865C31.6457 32.3049 31.6795 32.4001 31.7475 32.4718Z" fill="#FF944A"/>
<path d="M34.3041 32.9647L34.0377 32.4424H33.6824V32.9647H33.2043V31.0769H34.0271C34.2692 31.0769 34.4569 31.1349 34.5899 31.2505C34.7229 31.3665 34.7898 31.5291 34.7898 31.7391C34.7898 31.8809 34.7621 32.0036 34.7062 32.1066C34.6503 32.21 34.5694 32.2904 34.4634 32.3476L34.8445 32.9643L34.3041 32.9647ZM33.6828 32.049H34.0301C34.1278 32.049 34.203 32.0239 34.2559 31.9738C34.3091 31.9236 34.3357 31.8508 34.3357 31.7555C34.3357 31.6639 34.3091 31.5937 34.2559 31.544C34.2027 31.4946 34.1274 31.4699 34.0301 31.4699H33.6828V32.049Z" fill="#FF944A"/>
<path d="M36.5233 31.1742C36.6738 31.2584 36.7924 31.3744 36.8786 31.5217C36.9649 31.669 37.0079 31.834 37.0079 32.0174C37.0079 32.2023 36.9649 32.3692 36.8786 32.5181C36.7924 32.667 36.6742 32.7845 36.5233 32.8707C36.3728 32.9569 36.2041 33 36.0179 33C35.8317 33 35.6629 32.9573 35.5124 32.8723C35.362 32.7869 35.2434 32.6693 35.1571 32.5196C35.0709 32.3696 35.0279 32.2023 35.0279 32.0174C35.0279 31.8344 35.0709 31.669 35.1571 31.5217C35.2434 31.3744 35.3616 31.2588 35.5124 31.1742C35.6629 31.09 35.8317 31.0476 36.0179 31.0476C36.2041 31.0476 36.3728 31.0896 36.5233 31.1742ZM35.7712 31.5374C35.6937 31.586 35.6322 31.6526 35.5869 31.738C35.5417 31.8234 35.5189 31.9171 35.5189 32.0193C35.5189 32.1235 35.5421 32.2183 35.5881 32.3034C35.6341 32.3888 35.6956 32.4558 35.7724 32.5051C35.8491 32.5545 35.9324 32.5792 36.0232 32.5792C36.1137 32.5792 36.1969 32.5545 36.2725 32.5051C36.3481 32.4558 36.4078 32.3884 36.4515 32.3034C36.4952 32.218 36.5169 32.1235 36.5169 32.0193C36.5169 31.9171 36.4952 31.823 36.4515 31.738C36.4078 31.6526 36.3485 31.586 36.2725 31.5374C36.1965 31.4888 36.1137 31.4645 36.0232 31.4645C35.9324 31.4649 35.8484 31.4892 35.7712 31.5374Z" fill="#FF944A"/>
<path d="M38.2444 31.5003C38.1338 31.4627 38.0411 31.4439 37.9662 31.4439C37.9069 31.4439 37.8606 31.4552 37.8263 31.4776C37.7925 31.4999 37.7754 31.5328 37.7754 31.5759C37.7754 31.6171 37.7902 31.6519 37.8199 31.6797C37.8495 31.7076 37.886 31.7299 37.9297 31.7471C37.973 31.7644 38.0376 31.7863 38.1232 31.813C38.2501 31.8506 38.3554 31.8882 38.4378 31.9262C38.5207 31.9638 38.5913 32.0218 38.6506 32.0998C38.7099 32.1777 38.7396 32.2796 38.7396 32.4054C38.7396 32.5311 38.7073 32.6385 38.643 32.727C38.5784 32.816 38.4903 32.883 38.3778 32.9276C38.2653 32.9723 38.1406 32.995 38.0031 32.995C37.8514 32.995 37.7006 32.9676 37.5501 32.9128C37.3996 32.8579 37.2692 32.7831 37.1594 32.6879L37.3449 32.3027C37.4372 32.3869 37.5463 32.4563 37.6728 32.51C37.799 32.5637 37.9107 32.5907 38.0084 32.5907C38.0798 32.5907 38.1361 32.5774 38.1767 32.5503C38.2178 32.5233 38.2383 32.4837 38.2383 32.432C38.2383 32.3889 38.2231 32.3529 38.1927 32.3243C38.1623 32.2957 38.1239 32.2725 38.0779 32.2557C38.0319 32.2388 37.967 32.2185 37.8834 32.195C37.7579 32.1589 37.6542 32.1229 37.5725 32.086C37.4908 32.0492 37.4205 31.9936 37.3623 31.9191C37.3042 31.8447 37.2749 31.7456 37.2749 31.6218C37.2749 31.505 37.305 31.4027 37.365 31.3146C37.425 31.2268 37.5105 31.159 37.6211 31.1112C37.7317 31.0638 37.8602 31.0399 38.0065 31.0399C38.1387 31.0399 38.2695 31.0591 38.3983 31.0979C38.5271 31.1367 38.6404 31.188 38.7377 31.2527L38.5575 31.6457C38.4591 31.5865 38.355 31.5379 38.2444 31.5003Z" fill="#FF944A"/>
</svg>
