<svg width="48" height="48" viewBox="0 0 48 48" fill="none" xmlns="http://www.w3.org/2000/svg">
<rect width="48" height="48" rx="24" fill="white"/>
<path d="M23.5868 10.0014C20.3636 9.96034 19.0413 10.8229 18.2975 11.4801C17.6777 12.0141 17.2645 12.6302 16.9752 13.4106C16.8099 13.7803 16.7273 14.191 16.6446 14.5607C16.4793 15.5465 16.314 17.6823 17.8843 19.2432C19.4132 20.804 22.1405 21.5023 24 22.0362C24.3719 22.1184 24.6612 22.2416 24.9504 22.3238C24.9917 22.3238 25.0744 22.3648 25.1157 22.4059C25.281 22.488 25.4463 22.5291 25.5702 22.6113C25.6529 22.6523 25.7769 22.6934 25.8595 22.7756C26.1074 22.9399 26.2727 23.0631 26.3554 23.2274C26.438 23.3917 26.4793 23.556 26.4793 23.7614V23.8024C26.4793 24.2132 26.314 24.5418 25.9421 24.7882C25.5702 25.0347 25.0744 25.1168 24.3719 25.1168C22.9256 25.1168 20.9008 25.0347 18.9587 24.9936V28.526C19.124 28.6082 19.3306 28.6903 19.4959 28.7314C20.5703 29.101 21.6859 29.3475 22.843 29.4707C29.8264 29.9225 30.8182 25.6097 30.9421 24.5829C31.0661 23.556 31.3141 20.8861 29.124 19.3253C27.1818 17.9288 24.6198 17.477 23.0496 16.943C23.0083 16.943 22.9669 16.9019 22.8843 16.9019C22.4711 16.7787 22.1405 16.6144 21.9339 16.4912C21.686 16.368 21.5207 16.2036 21.438 16.0393C21.3554 15.875 21.3141 15.6697 21.3141 15.4643V15.4232C21.3141 15.0946 21.4793 14.8482 21.7686 14.6017C22.0579 14.3553 22.7603 14.2321 23.3802 14.2321C24.0413 14.2321 29.2893 14.2321 34.7438 14.2321V22.6934C34.7438 25.4865 34.0413 29.1832 28.5455 32.3049C26.9339 33.2085 25.7769 33.8246 24.9504 34.2354C24.8678 34.2764 24.7851 34.3175 24.7438 34.3586C24.0826 34.6872 23.3802 34.4407 23.1736 34.3175C23.1322 34.3175 23.1322 34.2764 23.0909 34.2764C22.843 34.1532 22.595 34.03 22.3058 33.8657C21.3967 33.3728 20.3636 32.8388 19.4132 32.3049C13.9174 29.2243 13.2149 25.4865 13.2149 22.5702V10.0014H9V22.5702C9 24.7061 9 31.2369 17.3058 35.9605C18.3388 36.5355 19.4132 37.1106 20.3223 37.6035C20.9008 37.891 21.3967 38.1785 21.8099 38.3839L22.3058 38.6303C22.9256 38.9178 23.2975 39 24.0413 39C25.157 39 25.9421 38.5071 25.9421 38.5071C26.1901 38.3839 26.5207 38.1785 26.9752 37.9731C27.843 37.5213 29 36.9052 30.6942 35.9605C39 31.278 39 24.7471 39 22.5702V10.0014H23.5868Z" fill="#002E6D"/>
</svg>
