<svg width="48" height="48" viewBox="0 0 48 48" fill="none" xmlns="http://www.w3.org/2000/svg">
<path d="M24 46.1538C36.2352 46.1538 46.1538 36.2352 46.1538 24C46.1538 11.7648 36.2352 1.84615 24 1.84615C11.7648 1.84615 1.84615 11.7648 1.84615 24C1.84615 36.2352 11.7648 46.1538 24 46.1538Z" fill="#103668"/>
<path d="M6.92308 40.6154C2.92308 36.4344 0 30.0136 0 23.8914C0 10.7512 10.4615 0.922915 24 0.922915C25.6923 0.922915 26.1538 0.624491 27.6923 0.923133" fill="#0059A3"/>
<path fill-rule="evenodd" clip-rule="evenodd" d="M24 46.1538C36.2352 46.1538 46.1538 36.2352 46.1538 24C46.1538 11.7648 36.2352 1.84615 24 1.84615C11.7648 1.84615 1.84615 11.7648 1.84615 24C1.84615 36.2352 11.7648 46.1538 24 46.1538ZM48 24C48 37.2548 37.2548 48 24 48C10.7452 48 0 37.2548 0 24C0 10.7452 10.7452 0 24 0C37.2548 0 48 10.7452 48 24Z" fill="#F8F8F8"/>
<path d="M14.6999 34.65L23.0999 18.6C23.2499 18.3 23.8499 18.3 23.9999 18.6L32.3999 34.65C32.5499 34.8 32.6999 34.95 32.8499 34.95H36.8999C37.1999 34.95 37.3499 34.65 37.1999 34.35L23.9999 9.6C23.8499 9.3 23.2499 9.3 23.0999 9.6L9.89989 34.35C9.74989 34.65 9.89989 34.95 10.1999 34.95H14.2499C14.3999 34.95 14.6999 34.8 14.6999 34.65Z" fill="white"/>
</svg>
