<svg width="48" height="48" viewBox="0 0 48 48" fill="none" xmlns="http://www.w3.org/2000/svg">
<rect width="48" height="48" rx="24" fill="white"/>
<path d="M18.1472 29.3203L18.092 29.3728C17.2259 30.2396 16.2237 30.6976 15.1912 30.6976C13.035 30.6976 11.4708 29.1087 11.4708 26.9172C11.4708 24.729 13.035 23.1376 15.1912 23.1376C16.2237 23.1376 17.2259 23.5981 18.092 24.4683L18.1472 24.5199L19.5338 22.8727L19.4968 22.8287C18.3437 21.4904 16.9596 20.8394 15.2584 20.8394C13.5529 20.8394 11.9913 21.404 10.8675 22.4207C9.64377 23.5228 9 25.0769 9 26.9172C9 28.7574 9.64377 30.315 10.8675 31.4171C11.9913 32.4396 13.5529 33 15.2584 33C16.9596 33 18.3437 32.3482 19.4968 31.0091L19.5338 30.9684L18.1472 29.3203Z" fill="#004685"/>
<path d="M20.9342 32.7752H23.3835V21.0294H20.9342V32.7752Z" fill="#004685"/>
<path d="M32.9792 30.222C32.3251 30.6131 31.7175 30.8103 31.1712 30.8103C30.3792 30.8103 30.0206 30.3989 30.0206 29.4847V23.2521H32.5173V21.041H30.0206V17.3859L27.6205 18.6489V21.041H25.5487V23.2521H27.6205V29.8817C27.6205 31.6872 28.7098 32.9231 30.3369 32.9553C31.4409 32.9764 32.1062 32.6531 32.5095 32.4161L32.5354 32.4L33.124 30.1348L32.9792 30.222Z" fill="#004685"/>
<path d="M35.0068 32.7752H37.4595V21.0294H35.0068V32.7752Z" fill="#004685"/>
<path d="M38.888 18.9705C36.6499 15.8572 32.9338 14 29.153 14C25.3731 14 21.6562 15.8572 19.4224 18.9705L19.3069 19.1305H22.125L22.156 19.0975C24.0735 17.1523 26.5779 16.1247 29.153 16.1247C31.7281 16.1247 34.2308 17.1523 36.1526 19.0975L36.1836 19.1305H39L38.888 18.9705Z" fill="#EE1C25"/>
</svg>

