<svg width="48" height="48" viewBox="0 0 48 48" fill="none" xmlns="http://www.w3.org/2000/svg">
<rect width="48" height="48" rx="24" fill="white"/>
<path d="M23.2584 23.9441C27.0217 23.9441 30.0725 20.8349 30.0725 16.9994C30.0725 13.1639 27.0217 10.0547 23.2584 10.0547C19.4951 10.0547 16.4443 13.1639 16.4443 16.9994C16.4443 20.8349 19.4951 23.9441 23.2584 23.9441Z" fill="url(#paint0_radial_3982_1295)"/>
<path opacity="0.65" d="M23.0432 25.1253H23.184C27.3734 25.1253 30.7929 21.6825 30.9916 17.2861H23.0432V25.1253Z" fill="url(#paint1_radial_3982_1295)"/>
<path opacity="0.65" d="M30.9916 16.7886C30.9088 12.4766 27.4479 9 23.184 9H23.0432V16.7886H30.9916Z" fill="url(#paint2_radial_3982_1295)"/>
<path d="M12 36.4654C12 37.0508 12.1483 38.9662 14.0522 38.9662C14.4766 39.0152 14.9034 38.8967 15.2449 38.6353C15.5865 38.3738 15.817 37.9892 15.8892 37.5601L15.8981 37.4714H15.0292L15.0181 37.5373C14.9963 37.7099 14.9236 37.8717 14.8095 38.0011C14.7158 38.0915 14.6049 38.1612 14.4837 38.206C14.3624 38.2507 14.2333 38.2697 14.1046 38.2615C13.2748 38.2615 12.8543 37.6556 12.8543 36.462C12.8543 35.7527 13.0171 34.5625 14.1113 34.5625C14.9333 34.5625 15.0203 35.1309 15.0493 35.3162L15.0594 35.3832L15.1285 35.3935H15.9092L15.9026 35.3071C15.8535 34.8789 15.6404 34.4879 15.3097 34.2191C14.979 33.9504 14.5574 33.8258 14.137 33.8725C12.1539 33.8691 12 35.8561 12 36.4654Z" fill="#6B8012"/>
<path d="M18.4948 33.8083C18.1927 33.7983 17.892 33.8526 17.6118 33.9679C17.3315 34.0832 17.078 34.2569 16.8675 34.4779C16.4232 35.0292 16.1993 35.7311 16.2406 36.4433C16.2406 38.0915 17.0214 38.9998 18.4435 38.9998C19.8656 38.9998 20.6976 38.0392 20.6976 36.3637C20.6965 34.7393 19.8945 33.8083 18.4948 33.8083ZM19.4439 37.8676C19.3213 38.0069 19.1693 38.1161 18.9993 38.187C18.8293 38.2579 18.6457 38.2887 18.4624 38.2769C18.279 38.2906 18.095 38.2609 17.9248 38.1901C17.7545 38.1193 17.6026 38.0093 17.4809 37.8688C17.1887 37.441 17.0479 36.9247 17.0817 36.4046C17.0817 35.1542 17.5601 34.5256 18.5026 34.5256C19.4094 34.5256 19.851 35.1247 19.851 36.358C19.8772 36.892 19.7362 37.4206 19.4484 37.8676H19.4439Z" fill="#6B8012"/>
<path d="M25.053 33.9353L23.7469 37.7217L22.4721 33.9353H21.1861V38.888H21.9747V34.9845L23.3264 38.888H24.0548L25.4657 34.9435V38.888H26.2609V33.9353H25.053Z" fill="#6B8012"/>
<path d="M29.356 33.9353H28.554L26.5085 38.888H27.3494L27.8569 37.6376H29.9348L30.4434 38.888H31.3223L29.356 33.9353ZM28.1291 36.9419L28.9243 34.8958C29.0358 35.205 29.6136 36.7657 29.6794 36.9419H28.1291Z" fill="#6B8012"/>
<path d="M31.6147 33.9353V38.888H32.4355V36.7066H34.4432V35.9894H32.4355V34.6605H34.5725V33.9376L31.6147 33.9353Z" fill="#6B8012"/>
<path d="M36 33.9353H35.1914V38.888H36V33.9353Z" fill="#6B8012"/>
<path d="M16.3746 29.8955C16.5779 29.806 16.7493 29.6549 16.8656 29.4628C16.9819 29.2707 17.0375 29.0467 17.0248 28.8213C17.0302 28.6529 17.0014 28.4852 16.9401 28.3287C16.8789 28.1722 16.7866 28.0303 16.669 27.9119C16.5005 27.7629 16.3026 27.6524 16.0887 27.5879C15.8747 27.5234 15.6497 27.5064 15.4287 27.538H13.671V32.4907H15.4622C15.8448 32.5309 16.2302 32.4516 16.5675 32.2634C16.7541 32.137 16.9068 31.9652 17.0118 31.7635C17.1167 31.5619 17.1707 31.3367 17.1687 31.1085C17.1904 30.8445 17.1237 30.5809 16.9795 30.3606C16.8353 30.1403 16.622 29.9764 16.3746 29.8955ZM14.4584 28.2382H15.3183C15.7778 28.2382 16.1917 28.2871 16.1917 28.8827C16.1917 29.3374 15.8972 29.5647 15.2927 29.5647H14.4584V28.2382ZM15.4946 31.7905H14.4584V30.29H15.5202C15.6241 30.2758 15.7298 30.2848 15.8299 30.3163C15.9301 30.3477 16.0223 30.4009 16.1004 30.4722C16.1784 30.5435 16.2403 30.6313 16.2819 30.7294C16.3234 30.8274 16.3436 30.9335 16.3411 31.0403C16.3411 31.5927 15.9039 31.7905 15.4946 31.7905Z" fill="#6B8012"/>
<path d="M20.0661 27.5349H19.2642L17.2175 32.4876H18.0585L18.5671 31.2372H20.6449L21.1524 32.4876H22.0314L20.0661 27.5349ZM18.8392 30.5415L19.6356 28.4954L20.3907 30.5415H18.8392Z" fill="#6B8012"/>
<path d="M25.4797 27.5349V31.2861L23.2891 27.5349H22.2608V32.4876H23.0103V28.6227L25.2789 32.4876H26.2359V27.5349H25.4797Z" fill="#6B8012"/>
<path d="M26.6777 30.065C26.6777 30.6504 26.826 32.5658 28.7299 32.5658C29.1542 32.6144 29.5807 32.4959 29.922 32.2345C30.2633 31.973 30.4936 31.5885 30.5658 31.1597L30.5747 31.0722H29.7058L29.6947 31.1381C29.6723 31.3105 29.5997 31.4721 29.4861 31.6019C29.3924 31.6921 29.2814 31.7617 29.1601 31.8065C29.0389 31.8513 28.9099 31.8702 28.7812 31.8622C28.2113 31.8622 27.5309 31.5496 27.5309 30.0628C27.5309 29.3534 27.6937 28.1633 28.7879 28.1633C29.6099 28.1633 29.6969 28.7316 29.7259 28.9158L29.736 28.9829L29.804 28.9931H30.5847L30.578 28.9067C30.529 28.4785 30.3159 28.0874 29.9852 27.8187C29.6545 27.55 29.2329 27.4254 28.8125 27.4721C26.8327 27.4687 26.6777 29.4557 26.6777 30.065Z" fill="#6B8012"/>
<path d="M33.1736 27.4079C32.8716 27.3979 32.5709 27.4523 32.2906 27.5676C32.0104 27.6828 31.7569 27.8565 31.5463 28.0774C31.1017 28.629 30.8778 29.3314 30.9195 30.044C30.9195 31.6922 31.7002 32.5994 33.1212 32.5994C34.5421 32.5994 35.3753 31.6389 35.3753 29.9644C35.3753 28.3401 34.5722 27.4079 33.1736 27.4079ZM34.1228 31.4672C34.0002 31.6065 33.8482 31.7157 33.6782 31.7866C33.5082 31.8575 33.3246 31.8882 33.1413 31.8764C32.9579 31.8904 32.7737 31.8608 32.6034 31.79C32.4331 31.7192 32.2813 31.6091 32.1598 31.4683C31.8678 31.0405 31.7269 30.5243 31.7605 30.0042C31.7605 28.7538 32.2378 28.1252 33.1803 28.1252C34.0881 28.1252 34.5288 28.7242 34.5288 29.9576C34.5541 30.4919 34.4119 31.0206 34.1228 31.4672Z" fill="#6B8012"/>
<defs>
<radialGradient id="paint0_radial_3982_1295" cx="0" cy="0" r="1" gradientUnits="userSpaceOnUse" gradientTransform="translate(20.7123 14.052) scale(11.4557 11.6753)">
<stop stop-color="#ADC46A"/>
<stop offset="0.61" stop-color="#657733"/>
<stop offset="1" stop-color="#384125"/>
</radialGradient>
<radialGradient id="paint1_radial_3982_1295" cx="0" cy="0" r="1" gradientUnits="userSpaceOnUse" gradientTransform="translate(22.7848 16.7764) scale(9.03009 9.57889)">
<stop stop-color="white"/>
<stop offset="0.14" stop-color="#DFE4D7"/>
<stop offset="0.45" stop-color="#A1AE8B"/>
<stop offset="0.71" stop-color="#728551"/>
<stop offset="0.9" stop-color="#556C31"/>
<stop offset="1" stop-color="#4A642E"/>
</radialGradient>
<radialGradient id="paint2_radial_3982_1295" cx="0" cy="0" r="1" gradientUnits="userSpaceOnUse" gradientTransform="translate(22.8659 16.7217) scale(9.05849 9.23219)">
<stop stop-color="white"/>
<stop offset="0.14" stop-color="#DFE4D7"/>
<stop offset="0.45" stop-color="#A1AE8B"/>
<stop offset="0.71" stop-color="#728551"/>
<stop offset="0.9" stop-color="#556C31"/>
<stop offset="1" stop-color="#4A642E"/>
</radialGradient>
</defs>
</svg>
