<svg width="48" height="48" viewBox="0 0 48 48" fill="none" xmlns="http://www.w3.org/2000/svg">
<rect width="48" height="48" rx="24" fill="white"/>
<path d="M39 9H9V35.8082H39V9Z" fill="#5F5A4E"/>
<path d="M13.2833 35.8082L9 35.8082V39H13.2833V35.8082Z" fill="#EB5D48"/>
<path d="M17.5667 35.8082H13.2833V39H17.5667V35.8082Z" fill="#F3923E"/>
<path d="M21.85 35.8082H17.5667V39H21.85V35.8082Z" fill="#F6C900"/>
<path d="M26.1417 35.8082H21.8583V39H26.1417V35.8082Z" fill="#49B170"/>
<path d="M30.425 35.8082H26.1417V39H30.425V35.8082Z" fill="#00A3E5"/>
<path d="M34.7084 35.8082H30.425V39H34.7084V35.8082Z" fill="#6E74B6"/>
<path d="M38.9917 35.8082H34.7084V39H38.9917V35.8082Z" fill="#BA4E97"/>
<path d="M32.3333 31.9562C29.7917 32.5814 27.175 32.9065 24.5583 32.9232C18.1 32.9232 14.7333 29.5305 14.7333 23.0952C14.7333 15.7512 17.5167 12.0084 25.175 12.0084C27.5833 12.0501 29.9833 12.3502 32.3333 12.8837V17.8852H30.225C29.675 14.2341 29.2917 13.2671 25.1417 13.2671C19.85 13.2671 19.3833 19.1023 19.3833 23.0952C19.3833 27.0881 20.4583 31.6895 25.375 31.6895C29.025 31.6895 29.9667 30.0223 30.1083 26.6879H32.3333V31.9562Z" fill="white"/>
</svg>
