<svg width="48" height="48" viewBox="0 0 48 48" fill="none" xmlns="http://www.w3.org/2000/svg">
<path d="M48 24C48 37.2548 37.2548 48 24 48C10.7452 48 0 37.2548 0 24C0 10.7452 10.7452 0 24 0C37.2548 0 48 10.7452 48 24Z" fill="white"/>
<path d="M24 46.2857C11.6919 46.2857 1.71429 36.3081 1.71429 24C1.71429 11.6919 11.6919 1.71429 24 1.71429C36.3081 1.71429 46.2857 11.6919 46.2857 24C46.2857 36.3081 36.3081 46.2857 24 46.2857ZM28.5675 17.1057C27.7742 17.3367 26.4595 17.5916 24.4615 17.6269C24.502 15.731 24.7722 14.479 25.0135 13.73C25.2027 13.1436 25.3723 12.8605 25.4035 12.8136C25.4035 12.0646 24.7763 11.4643 24.0026 11.4643C23.2284 11.4643 22.6005 12.0646 22.6005 12.8042C22.6411 12.8821 22.806 13.1635 22.99 13.7289C23.2307 14.4762 23.4998 15.7255 23.5397 17.6258C21.5376 17.5888 20.2188 17.3312 19.4255 17.1002C18.745 16.899 18.4517 16.7199 18.4517 16.7199C17.667 16.7177 17.0357 17.3213 17.0357 18.0653C17.0357 18.8087 17.667 19.4112 18.4453 19.4112C18.4517 19.4107 18.7439 19.2277 19.4296 19.0293C20.2183 18.7977 21.5283 18.5417 23.5183 18.5053C23.4135 20.6019 23.0253 21.8085 22.7851 22.3657C22.6364 22.6979 22.2811 23.3397 21.7089 23.4994L24.0072 39.3214L26.2911 23.5016C25.7171 23.3391 25.3613 22.6935 25.2126 22.3596C24.9441 21.7212 24.5801 20.5306 24.4823 18.5058C26.4676 18.5429 27.7806 18.7993 28.5722 19.0309C29.2503 19.2266 29.5466 19.4052 29.5541 19.4096C30.3336 19.4112 30.9643 18.8087 30.9643 18.0653C30.9643 17.3213 30.3336 16.7177 29.5547 16.7177C29.5454 16.7265 29.2503 16.9056 28.5675 17.1057Z" fill="#FF6600"/>
</svg>
