<svg width="48" height="48" viewBox="0 0 48 48" fill="none" xmlns="http://www.w3.org/2000/svg">
<rect width="48" height="48" rx="24" fill="white"/>
<path fill-rule="evenodd" clip-rule="evenodd" d="M14.8042 18.3001C14.8042 13.1621 18.9193 9 23.9968 9C29.0775 9 33.1895 13.1621 33.1895 18.3001C33.1895 23.4381 29.0775 27.6034 23.9968 27.6034C18.9193 27.6034 14.8042 23.4381 14.8042 18.3001ZM23.9968 26.1622C28.2878 26.1622 31.7698 22.6432 31.7698 18.3001C31.7698 13.9603 28.2878 10.438 23.9968 10.438C19.7058 10.438 16.2302 13.9603 16.2302 18.3001C16.2302 22.6432 19.7058 26.1622 23.9968 26.1622ZM27.5396 21.8708V20.4425H24.7162V16.1544H27.5396V14.7229H24.3709V13.2914H28.956V17.5827H26.1359V19.0142H28.956V23.2991H24.3709V21.8708H27.5396ZM20.486 14.7197V16.1512H23.3094V20.4425H20.486V21.8676H23.6643V23.2991H19.0759V19.011H21.8833V17.5795H19.0759V13.2881H23.6643V14.7197H20.486Z" fill="#C3161C"/>
<path d="M14.6856 35.1748C14.6856 35.8986 14.8104 36.5029 15.0629 37.007C15.2676 37.4336 15.5649 37.789 15.9902 38.1316C16.6521 38.668 17.5857 38.9362 18.7624 38.9362H20.7928V37.5144H18.8743C17.8127 37.5144 17.0358 37.2461 16.5817 36.7194C16.2524 36.3478 16.0829 35.8405 16.0829 35.22C16.0765 34.5543 16.262 34.0244 16.6297 33.6495C17.0933 33.1778 17.8479 32.9354 18.8743 32.9354H20.7928V31.5297H18.8359C18.1741 31.5297 17.6241 31.5943 17.1445 31.7301C16.6649 31.8658 16.2716 32.0726 15.9422 32.3505C15.4754 32.7512 14.6856 33.6495 14.6856 35.1748Z" fill="#231F20"/>
<path fill-rule="evenodd" clip-rule="evenodd" d="M22.254 38.9935V31.474L26.1453 31.4772C26.8967 31.4772 27.5202 31.684 27.9487 32.0847C28.3388 32.4499 28.5498 32.9604 28.5498 33.5324C28.5498 34.5729 28.1245 34.9219 27.7984 35.0964L27.776 35.1093L27.7984 35.1223C28.5178 35.4454 28.8855 36.0562 28.8855 36.9351C28.8855 37.3358 28.7896 37.9078 28.342 38.3473C27.9071 38.7835 27.2356 39 26.3372 39L22.254 38.9935ZM23.6673 34.4437H26.0334C26.2285 34.4437 26.5194 34.4307 26.7464 34.3209C27.0054 34.2013 27.1365 33.9848 27.1365 33.681C27.1365 32.857 26.4427 32.857 26.0238 32.857H23.6673V34.4437ZM23.6577 37.5879V37.6073H26.2572C26.5738 37.6073 27.0118 37.6072 27.2644 37.352C27.4019 37.213 27.4723 37.0159 27.4723 36.7574C27.4723 36.4375 27.3412 36.1886 27.0918 36.0238C26.8168 35.8429 26.4779 35.8073 26.2412 35.8073H23.6673V35.8235L23.6577 37.5879Z" fill="#231F20"/>
<path d="M29.7778 35.174C29.7778 35.8978 29.9025 36.5409 30.1551 37.0741C30.3661 37.5394 30.6795 37.9369 31.0823 38.2632C31.7058 38.7673 32.5883 38.9968 33.8577 38.9968H36V37.5782H33.9696C32.9049 37.5782 32.1343 37.297 31.6707 36.7509C31.3477 36.3664 31.1815 35.8493 31.1719 35.2192C31.1687 34.5341 31.3573 33.988 31.741 33.6003C32.211 33.1252 32.9624 32.8829 33.9696 32.8829H36V31.4772H33.9281C33.2662 31.4772 32.7162 31.5418 32.2334 31.6775C31.757 31.8133 31.3637 32.0168 31.0312 32.298C30.6603 32.6179 29.7778 33.5421 29.7778 35.174Z" fill="#231F20"/>
<path d="M12 38.9985H13.4836V31.4757H12V38.9985Z" fill="#231F20"/>
</svg>
