<svg width="48" height="48" viewBox="0 0 48 48" fill="none" xmlns="http://www.w3.org/2000/svg">
<rect width="48" height="48" rx="24" fill="white"/>
<path d="M24.0013 16.2924C18.8533 16.2924 14.5915 20.312 14.2974 25.4433C14.2895 25.5721 14.336 25.693 14.4238 25.7896C14.513 25.8836 14.6381 25.9373 14.7671 25.9373H18.1947C18.4382 25.9373 18.6391 25.7507 18.6617 25.5023C18.9212 22.7367 21.2151 20.6503 23.9987 20.6503C26.7822 20.6503 29.0762 22.7367 29.3356 25.5023C29.3582 25.7507 29.5605 25.9373 29.8026 25.9373H33.2302C33.3593 25.9373 33.4857 25.8836 33.5735 25.7896C33.6627 25.6957 33.7066 25.5721 33.6999 25.4446C33.4059 20.3147 29.1453 16.2937 24 16.2937" fill="#183254"/>
<path d="M24.0013 21.5995C21.569 21.5995 19.5918 23.5757 19.5918 26.0058C19.5918 28.4358 21.569 30.4147 24.0013 30.4147C26.4336 30.4147 28.4095 28.4358 28.4095 26.0058C28.4095 23.5757 26.4323 21.5995 24.0013 21.5995Z" fill="#183254"/>
<path d="M24.0013 11C20.0894 11 16.3851 12.4956 13.5723 15.2129C10.7674 17.9222 9.1441 21.5552 9.0004 25.4446C8.99508 25.5748 9.04298 25.6983 9.13213 25.7923C9.22128 25.885 9.34236 25.936 9.47009 25.936H12.875C13.1252 25.936 13.3314 25.74 13.3421 25.4889C13.6135 19.7964 18.2958 15.3378 24 15.3378C29.7042 15.3378 34.3865 19.7964 34.6579 25.4889C34.6699 25.7386 34.8748 25.936 35.1249 25.936H38.5299C38.659 25.936 38.7774 25.8863 38.8679 25.7923C38.9583 25.6983 39.0049 25.5748 38.9996 25.4459C38.8572 21.5565 37.2339 17.9236 34.4277 15.2143C31.6136 12.497 27.9106 11.0013 24 11.0013" fill="#183254"/>
<path d="M11.0881 34.0611C11.0881 33.9215 11.0548 33.8154 10.9896 33.7416C10.9271 33.6678 10.8499 33.6154 10.7541 33.5818C10.6636 33.5483 10.5652 33.5308 10.4587 33.5268C10.3563 33.5201 10.2671 33.5161 10.1913 33.5161H9.62312V34.7297H10.1806C10.2857 34.7297 10.3922 34.7203 10.4973 34.7015C10.6064 34.6827 10.7049 34.6505 10.7927 34.6022C10.8805 34.5539 10.951 34.4881 11.0056 34.4035C11.0601 34.3149 11.0881 34.2008 11.0881 34.0611ZM11.1919 35.8373C11.1919 35.7044 11.1639 35.597 11.1094 35.5124C11.0588 35.4279 10.987 35.3621 10.8965 35.3137C10.806 35.2627 10.7009 35.2278 10.5851 35.209C10.468 35.1875 10.347 35.1755 10.2192 35.1755H9.62312V36.4831H10.2511C10.3829 36.4831 10.504 36.4764 10.6171 36.4616C10.7341 36.4428 10.8339 36.412 10.9178 36.3677C11.0056 36.3193 11.0721 36.2535 11.12 36.169C11.1679 36.0844 11.1905 35.9743 11.1905 35.8387L11.1919 35.8373ZM11.7826 35.887C11.7826 36.0454 11.7574 36.1891 11.7055 36.3166C11.6549 36.4455 11.5724 36.5556 11.4593 36.6482C11.3502 36.7369 11.2065 36.8067 11.0269 36.8577C10.8526 36.906 10.6383 36.9288 10.3869 36.9288H9.06028V33.0676H10.3563C10.6038 33.0676 10.8113 33.0918 10.979 33.1388C11.1466 33.1831 11.281 33.2475 11.3835 33.3321C11.4859 33.4167 11.5578 33.5174 11.6017 33.6355C11.6456 33.7497 11.6669 33.8759 11.6669 34.0155C11.6669 34.1551 11.6483 34.2759 11.6123 34.3793C11.5791 34.4787 11.5325 34.5633 11.47 34.6331C11.4074 34.7029 11.3329 34.7593 11.2464 34.8036C11.1626 34.8479 11.0695 34.8841 10.967 34.9137V34.9472C11.0721 34.9687 11.1746 35.0009 11.273 35.0412C11.3715 35.0815 11.4567 35.1392 11.5298 35.2117C11.607 35.2815 11.6669 35.3715 11.7108 35.4816C11.7587 35.5917 11.7813 35.7259 11.7813 35.8843L11.7826 35.887Z" fill="#183254"/>
<path d="M14.2522 36.565V35.5608C14.1351 35.5567 14.0353 35.5541 13.9515 35.55C13.8677 35.546 13.8051 35.5447 13.7652 35.5447C13.6228 35.5447 13.4938 35.5514 13.3767 35.5661C13.2636 35.5769 13.1678 35.6024 13.0866 35.644C13.0068 35.6803 12.9442 35.7326 12.9003 35.7984C12.8604 35.8642 12.8405 35.9515 12.8405 36.0575C12.8405 36.1784 12.8644 36.2764 12.911 36.3502C12.9615 36.42 13.0281 36.4737 13.1079 36.51C13.1917 36.5435 13.2862 36.565 13.3926 36.5757C13.4978 36.5865 13.6055 36.5919 13.7146 36.5919C13.7878 36.5919 13.861 36.5905 13.9329 36.5865C14.006 36.5798 14.1112 36.5717 14.2495 36.565H14.2522ZM14.7937 36.9235C14.5502 36.953 14.3267 36.9718 14.1271 36.9785C13.9302 36.9852 13.7333 36.9893 13.5363 36.9893C13.3501 36.9893 13.1797 36.9758 13.0227 36.9503C12.8697 36.9248 12.7367 36.8765 12.6236 36.8067C12.5145 36.7369 12.428 36.6415 12.3668 36.5194C12.3042 36.3945 12.2736 36.2347 12.2736 36.0401C12.2736 35.8159 12.3229 35.6427 12.4213 35.5218C12.5238 35.397 12.6488 35.307 12.7979 35.252C12.9509 35.1929 13.1146 35.1607 13.2902 35.1526C13.4685 35.1419 13.6321 35.1365 13.7825 35.1365C13.845 35.1365 13.9142 35.1406 13.9901 35.1473C14.0672 35.1513 14.1524 35.1526 14.2469 35.1526C14.2469 34.9982 14.2416 34.8734 14.2309 34.7781C14.2203 34.6787 14.187 34.6022 14.1324 34.5458C14.0819 34.4867 13.9994 34.4465 13.8863 34.425C13.7772 34.4035 13.6215 34.3914 13.4219 34.3914C13.2689 34.3914 13.1106 34.4048 12.9469 34.4303C12.7832 34.4518 12.6249 34.4787 12.4719 34.5069V34.0772C12.8138 34.0074 13.1518 33.9725 13.4831 33.9725C13.684 33.9725 13.8637 33.9833 14.0247 34.0061C14.1857 34.0249 14.3214 34.0665 14.4345 34.1323C14.5516 34.1981 14.6407 34.2961 14.7019 34.425C14.7645 34.5498 14.7951 34.719 14.7951 34.9325V36.9235H14.7937Z" fill="#183254"/>
<path d="M18.1561 36.9288H17.6039V35.0815C17.6039 35.005 17.5999 34.9271 17.5933 34.8492C17.5893 34.7714 17.572 34.7042 17.5387 34.6452C17.5094 34.5821 17.4602 34.5324 17.391 34.4961C17.3258 34.4559 17.23 34.4357 17.1063 34.4357C17.0371 34.4357 16.9599 34.4451 16.8761 34.4639C16.7923 34.4827 16.7084 34.5042 16.6246 34.5297C16.5408 34.5552 16.4583 34.5847 16.3785 34.6183C16.3013 34.6478 16.2321 34.6747 16.1709 34.7015V36.9302H15.6293V34.0289H16.1323V34.2934C16.2747 34.2303 16.3971 34.1793 16.4982 34.139C16.6007 34.0947 16.6938 34.0611 16.7776 34.0397C16.8615 34.0141 16.944 33.998 17.0238 33.99C17.1036 33.9792 17.1928 33.9739 17.2912 33.9739C17.3897 33.9739 17.4948 33.99 17.5973 34.0235C17.7024 34.0531 17.7955 34.1041 17.8767 34.1779C17.9605 34.2478 18.0284 34.3404 18.0789 34.4532C18.1295 34.5633 18.1561 34.6975 18.1561 34.8559V36.9302V36.9288Z" fill="#183254"/>
<path d="M21.1526 36.9181C21.0142 36.9476 20.8851 36.9664 20.764 36.9732C20.6443 36.9839 20.5259 36.9893 20.4088 36.9893C20.1759 36.9893 19.963 36.9584 19.7688 36.8953C19.5758 36.8295 19.4095 36.7315 19.2711 36.6026C19.1328 36.4697 19.025 36.3072 18.9491 36.1112C18.872 35.9125 18.8347 35.6829 18.8347 35.4212C18.8347 35.1889 18.8746 34.9835 18.9545 34.8036C19.0343 34.6237 19.1434 34.4733 19.2818 34.3511C19.4202 34.2263 19.5825 34.1323 19.7688 34.0692C19.9577 34.0034 20.16 33.9698 20.3755 33.9698C20.4527 33.9698 20.5219 33.9712 20.5831 33.9752C20.6456 33.9752 20.7028 33.9792 20.7574 33.986C20.8159 33.99 20.8745 33.9967 20.9317 34.0074C20.9902 34.0141 21.0541 34.0235 21.1233 34.0356V34.4653C21.0062 34.4465 20.9064 34.4317 20.8226 34.4209C20.7388 34.4102 20.6509 34.4048 20.5605 34.4048C20.3968 34.4048 20.2451 34.4236 20.1067 34.4599C19.9684 34.4961 19.8459 34.5552 19.7408 34.6358C19.6384 34.7163 19.5585 34.8237 19.5 34.9553C19.4414 35.0842 19.4122 35.2426 19.4122 35.4292C19.4122 35.8078 19.5146 36.0911 19.7182 36.279C19.9258 36.463 20.2079 36.5529 20.5658 36.5489C20.6456 36.5449 20.7321 36.5395 20.8226 36.5328C20.9131 36.5261 21.0235 36.5113 21.1499 36.4885V36.9127L21.1526 36.9181Z" fill="#183254"/>
<path d="M23.8217 35.4614C23.8217 35.1191 23.7485 34.8532 23.6035 34.6613C23.4571 34.4706 23.2429 34.374 22.9582 34.374C22.6734 34.374 22.4592 34.4693 22.3128 34.6613C22.1665 34.8519 22.0946 35.1191 22.0946 35.4614C22.0946 35.8038 22.1678 36.0803 22.3128 36.2831C22.4592 36.4858 22.6734 36.5865 22.9582 36.5865C23.2429 36.5865 23.4571 36.4858 23.6035 36.2831C23.7499 36.0803 23.8217 35.8065 23.8217 35.4614ZM24.4072 35.4614C24.4072 35.6856 24.3712 35.8937 24.2981 36.0844C24.2289 36.2723 24.1291 36.4334 23.9973 36.5704C23.8696 36.706 23.7166 36.8134 23.5383 36.8899C23.364 36.9638 23.1697 37 22.9595 37C22.7293 37 22.5244 36.9638 22.3421 36.8899C22.1638 36.8134 22.0121 36.706 21.8884 36.5704C21.7646 36.4348 21.6702 36.2723 21.6036 36.0844C21.5411 35.8964 21.5105 35.6897 21.5105 35.4614C21.5105 35.2332 21.5438 35.0224 21.609 34.8385C21.6742 34.6505 21.7673 34.4934 21.8884 34.3646C22.0121 34.2357 22.1638 34.1363 22.3421 34.0665C22.5244 33.9967 22.7306 33.9618 22.9595 33.9618C23.1883 33.9618 23.3933 33.9967 23.5716 34.0665C23.7499 34.1363 23.9015 34.2357 24.0253 34.3646C24.149 34.4934 24.2435 34.6519 24.31 34.8385C24.3752 35.0224 24.4085 35.2305 24.4085 35.4614H24.4072Z" fill="#183254"/>
<path d="M27.6019 34.6948H28.1487C28.2033 34.6948 28.2672 34.6935 28.3403 34.6895C28.4135 34.6854 28.484 34.668 28.5532 34.6344C28.6224 34.6008 28.681 34.5485 28.7275 34.4746C28.7754 34.3968 28.7981 34.2867 28.7981 34.1444C28.7981 34.0021 28.7741 33.892 28.7275 33.8195C28.6796 33.7416 28.6224 33.6866 28.5532 33.6543C28.484 33.6181 28.4135 33.598 28.3403 33.5939C28.2672 33.5899 28.2033 33.5886 28.1487 33.5886H27.6019V34.6975V34.6948ZM27.6019 36.3824H28.2033C28.2578 36.3824 28.323 36.3811 28.4002 36.3771C28.4801 36.373 28.5546 36.3556 28.6238 36.322C28.6969 36.2858 28.7568 36.228 28.8047 36.1515C28.8553 36.075 28.8819 35.9609 28.8819 35.8091C28.8819 35.6574 28.8566 35.55 28.8047 35.4722C28.7568 35.3916 28.6969 35.3339 28.6238 35.3017C28.5546 35.2654 28.4801 35.2453 28.4002 35.2412C28.323 35.2372 28.2578 35.2359 28.2033 35.2359H27.6019V36.3824ZM29.7281 35.8803C29.7281 36.0683 29.6935 36.224 29.6243 36.3489C29.5552 36.4737 29.4673 36.5744 29.3622 36.6523C29.2571 36.7301 29.1413 36.7879 29.0176 36.8281C28.8939 36.8644 28.7754 36.8913 28.6623 36.906C28.5532 36.9208 28.4561 36.9275 28.3723 36.9275H26.8368V33.0663H28.2246C28.3776 33.0663 28.5359 33.077 28.6996 33.0999C28.8633 33.1187 29.0136 33.1603 29.148 33.2261C29.2864 33.2892 29.3995 33.3818 29.4873 33.508C29.5751 33.6288 29.619 33.7913 29.619 33.994C29.619 34.1269 29.6004 34.2424 29.5645 34.3417C29.5285 34.4411 29.4767 34.527 29.4115 34.6008C29.3463 34.6747 29.2651 34.7351 29.1706 34.7834C29.0801 34.8318 28.9777 34.8694 28.8646 34.8989V34.9754C28.8646 34.9754 28.9085 34.9821 28.9963 34.9969C29.0868 35.0076 29.1879 35.0452 29.297 35.107C29.4061 35.1661 29.5046 35.256 29.5924 35.3768C29.6829 35.4977 29.7295 35.6655 29.7295 35.879L29.7281 35.8803Z" fill="#183254"/>
<path d="M33.2488 33.0676H34.4291L34.7684 36.9288H33.998L33.8117 33.6584H33.7412L32.8723 36.9288H31.9595L31.1226 33.6584H31.0521L30.8112 36.9288H30.1499L30.4892 33.0676H31.7187L32.4345 35.9971H32.505L33.2488 33.0676Z" fill="#183254"/>
<path d="M37.5386 35.495L37.0024 33.7242H36.9039L36.3517 35.495H37.5386ZM38.8772 36.9288H38.0136L37.7183 36.0468H36.1708L35.8807 36.9288H35.0278L36.4542 33.0676H37.5093L38.8759 36.9288H38.8772Z" fill="#183254"/>
</svg>
