<svg width="48" height="48" viewBox="0 0 48 48" fill="none" xmlns="http://www.w3.org/2000/svg">
<rect width="48" height="48" rx="24" fill="white"/>
<path d="M33.3748 23.9991L28.4056 16.2827C28.2943 16.1096 28.1047 16.0063 27.8987 16.0063H24.5877C24.4844 16.0063 24.3896 16.0624 24.3408 16.1527C24.2913 16.2435 24.2954 16.3531 24.3516 16.4399L29.5314 24.4833C29.5422 24.5003 29.5422 24.5219 29.5314 24.5389L24.3516 32.559C24.2954 32.6459 24.2913 32.7554 24.3408 32.8461C24.3902 32.937 24.485 32.9932 24.5883 32.9932H27.9004C28.1059 32.9932 28.2955 32.8899 28.4067 32.7174L33.3748 25.0253C33.5757 24.7131 33.5757 24.3107 33.3748 23.9991Z" fill="#FE5000"/>
<path d="M34.3962 25.5696C34.3439 25.489 34.2559 25.4408 34.1599 25.4408C34.064 25.4408 33.9754 25.489 33.9233 25.5696L32.559 27.6811C32.2689 28.1307 32.2689 28.7112 32.5601 29.1602L34.8849 32.7497C34.9831 32.9013 35.1501 32.992 35.3306 32.992H38.7607C38.8481 32.992 38.9288 32.9444 38.9708 32.8677C39.0128 32.7911 39.0093 32.6975 38.9616 32.6237L34.3962 25.5696Z" fill="#50007F"/>
<path d="M33.9232 23.4287C33.9754 23.5093 34.0641 23.5575 34.1599 23.5575C34.2559 23.5575 34.3445 23.5093 34.3962 23.4287L38.9611 16.374C39.0088 16.3003 39.0122 16.2072 38.9702 16.13C38.9282 16.0528 38.8476 16.0051 38.7601 16.0051H35.33C35.1495 16.0051 34.9826 16.0959 34.8844 16.2475L32.5596 19.8369C32.2689 20.2859 32.2684 20.8665 32.5585 21.3161L33.9232 23.4287Z" fill="#50007F"/>
<path d="M22.9567 16H20.0556C19.9002 16 19.7747 16.126 19.7747 16.281V26.5953C19.7696 26.7656 19.6821 26.8167 19.5845 26.6509L12.8854 16.256C12.7827 16.0965 12.6061 16 12.4159 16H9.28443C9.11808 16 9 16.1357 9 16.2844V32.7157C9 32.8796 9.13398 33 9.28443 33H12.1854C12.341 33 12.4665 32.874 12.4665 32.7191V22.4047C12.4716 22.2345 12.559 22.1834 12.6566 22.3491L19.3557 32.744C19.4584 32.9035 19.6355 33 19.8251 33H22.9567C23.123 33 23.2412 32.8643 23.2412 32.7157V16.2844C23.2412 16.1203 23.1065 16 22.9567 16Z" fill="#FE5000"/>
</svg>
