<svg width="48" height="48" viewBox="0 0 48 48" fill="none" xmlns="http://www.w3.org/2000/svg">
<rect x="0.5" y="0.5" width="47" height="47" rx="23.5" stroke="white"/>
<path d="M24 47C36.7025 47 47 36.7025 47 24C47 11.2975 36.7025 1 24 1C11.2975 1 1 11.2975 1 24C1 36.7025 11.2975 47 24 47Z" fill="#002C55"/>
<path d="M6.36645 17.7389H7.89979C8.4109 17.7389 9.30534 17.9944 9.30534 19.0166C9.30534 19.9111 8.66645 20.1666 8.4109 20.2944C8.79423 20.2944 9.5609 20.6777 9.5609 21.7C9.5609 23.1055 8.53868 23.2333 7.77201 23.2333H6.36645V17.7389ZM7.13312 20.0389H7.64423C8.02756 20.0389 8.53868 19.9111 8.53868 19.1444C8.53868 18.3777 8.02756 18.3777 7.51645 18.3777H7.13312V20.0389ZM7.13312 22.5944H7.77201C8.53868 22.5944 8.79423 22.2111 8.79423 21.7C8.79423 20.8055 7.89979 20.6777 7.64423 20.6777H7.13312V22.5944Z" fill="white"/>
<path d="M15.0553 17.7389H16.0776L18.2498 22.0833V17.7389H19.0165V23.2333H18.122L15.9498 18.7611V23.2333H15.0553V17.7389Z" fill="white"/>
<path d="M23.1053 22.3388C22.8498 22.4666 22.4665 22.5944 22.0831 22.5944C20.9331 22.5944 20.5498 21.5722 20.5498 20.1666C20.5498 19.4 20.6776 18.1222 21.6998 18.1222C22.0831 18.1222 22.3387 18.2499 22.4665 18.5055L23.1053 17.9944C22.722 17.7388 22.3387 17.6111 21.6998 17.6111C20.0387 17.6111 19.6553 18.8888 19.6553 20.4222C19.6553 22.5944 20.6776 23.3611 21.8276 23.3611C22.4665 23.3611 22.9776 23.1055 23.2331 22.9777L23.1053 22.3388Z" fill="white"/>
<path d="M23.3609 20.4222C23.3609 18.8888 23.872 17.6111 25.5331 17.6111C27.1942 17.6111 27.7053 19.0166 27.7053 20.4222C27.7053 21.9555 27.1942 23.2333 25.5331 23.2333C23.872 23.3611 23.3609 21.9555 23.3609 20.4222ZM25.5331 22.7222C26.6831 22.7222 26.8109 21.4444 26.8109 20.55C26.8109 19.6555 26.6831 18.3777 25.5331 18.3777C24.3831 18.3777 24.2553 19.6555 24.2553 20.55C24.2553 21.3166 24.3831 22.7222 25.5331 22.7222Z" fill="white"/>
<path d="M14.672 23.2333L12.7553 17.7389H11.7331L9.94424 23.2333H10.7109L12.2442 18.3777L13.0109 20.6777H12.2442L12.1165 21.3166H13.1387L13.7776 23.2333H14.672Z" fill="white"/>
<path d="M41.6333 30.2611L39.7166 24.7667H38.8222L36.9055 30.2611H37.6722L39.2055 25.5334L39.9722 27.7056H39.2055L39.0778 28.3445H40.2278L40.7389 30.2611H41.6333Z" fill="white"/>
<path d="M35.6278 24.7667H36.3944V30.2611H35.6278V24.7667Z" fill="white"/>
<path d="M30.8998 24.7667H31.922L34.0943 29.1111V24.7667H34.8609V30.2611H33.9665L31.6665 25.9167V30.3889H30.8998V24.7667Z" fill="white"/>
<path d="M25.9165 27.5778C25.9165 26.0445 26.4276 24.7667 28.0887 24.7667C29.7499 24.7667 30.261 26.1722 30.261 27.5778C30.261 29.1111 29.7499 30.3889 28.0887 30.3889C26.4276 30.3889 25.9165 28.9834 25.9165 27.5778ZM28.0887 29.75C29.2387 29.75 29.3665 28.4722 29.3665 27.5778C29.3665 26.6834 29.2387 25.4056 28.0887 25.4056C26.9387 25.4056 26.811 26.6834 26.811 27.5778C26.811 28.4722 26.9387 29.75 28.0887 29.75Z" fill="white"/>
<path d="M23.3613 27.7056H24.5113V29.4945C24.5113 29.6222 24.0002 29.75 23.6169 29.75C22.3391 29.75 22.2113 28.4722 22.2113 27.3222C22.2113 26.3 22.4669 25.2778 23.4891 25.2778C24.0002 25.2778 24.2557 25.4056 24.3835 25.7889L25.0224 25.2778C24.6391 24.8945 24.128 24.7667 23.6169 24.7667C22.0835 24.7667 21.4446 25.9167 21.4446 27.45C21.4446 29.6222 22.3391 30.5167 23.7446 30.5167C24.6391 30.5167 25.278 30.1334 25.4057 30.0056V27.1945H23.4891V27.7056H23.3613Z" fill="white"/>
<path d="M21.1889 30.2611L19.2722 24.7667H18.25L16.4611 30.2611H17.2278L18.7611 25.5333L19.5278 27.7056H18.7611L18.6333 28.3445H19.7833L20.2944 30.2611H21.1889Z" fill="white"/>
<path d="M14.8001 25.4056H13.3945V24.7667H16.9723V25.4056H15.5668V30.2611H14.8001V25.4056Z" fill="white"/>
<path d="M13.9056 30.2611L11.989 24.7667H10.9668L9.05009 30.2611H9.94453L11.4779 25.5334L12.2445 27.7056H11.4779L11.3501 28.3445H12.3723L13.0112 30.2611H13.9056Z" fill="white"/>
<path d="M6.36687 24.7667H7.64465C8.41131 24.7667 9.56131 24.7667 9.56131 26.3C9.56131 27.7056 8.41131 27.8334 7.77242 27.8334H7.13354V30.3889H6.36687V24.7667ZM7.13354 27.0667H7.64465C8.28354 27.0667 8.66687 26.9389 8.66687 26.3C8.66687 25.4056 8.02798 25.4056 7.64465 25.4056H7.13354V27.0667Z" fill="white"/>
</svg>
