<svg width="48" height="48" viewBox="0 0 48 48" fill="none" xmlns="http://www.w3.org/2000/svg">
<rect width="48" height="48" rx="24" fill="white"/>
<path d="M23.3207 25.6135V35.6434H24.689V25.6135C27.1942 28.0936 29.709 30.5836 32.2143 33.0637C30.952 36.6295 27.6759 39 24.0048 39C20.3337 39 17.0577 36.6295 15.7954 33.0637C18.3006 30.5836 20.8059 28.1035 23.3207 25.6135Z" fill="#00953B"/>
<path d="M23.2436 24.0001C20.565 26.6096 17.8959 29.2092 15.2173 31.8188C13.4925 31.6096 11.7581 31.4005 10.0334 31.2013C8.65553 26.51 8.65553 21.5001 10.0334 16.8088C11.7581 16.5997 13.4925 16.3905 15.2173 16.1913C17.8959 18.7909 20.565 21.3905 23.2436 24.0001Z" fill="#00953B"/>
<path d="M24.7564 24C27.435 21.3905 30.1041 18.7909 32.7827 16.1813C34.5075 16.3905 36.2419 16.5996 37.9666 16.7988C39.3445 21.4901 39.3445 26.5 37.9666 31.1913C36.2419 31.4004 34.5075 31.6096 32.7827 31.8088C30.1041 29.2092 27.435 26.6096 24.7564 24Z" fill="#00953B"/>
<path d="M15.7858 14.9363C17.048 11.3705 20.3241 9 24.0048 9C27.676 9 30.952 11.3705 32.2143 14.9363C29.709 17.4163 27.1942 19.8964 24.689 22.3865V14.1693C24.9202 13.9402 25.1515 13.7112 25.3827 13.4821C25.4887 13.3924 25.4887 13.2231 25.3827 13.1335C25.1611 12.9143 24.9395 12.6853 24.7082 12.4661C24.6022 12.3566 24.4866 12.247 24.371 12.1375C24.3035 12.0777 24.2457 12.008 24.1783 11.9482C24.1686 11.9482 24.1686 11.9382 24.159 11.9283C24.1397 11.9183 24.1301 11.9084 24.1108 11.8984C24.0723 11.8785 24.0337 11.8685 23.9952 11.8685C23.9567 11.8685 23.9181 11.8785 23.8796 11.8984C23.8603 11.9084 23.8507 11.9183 23.8314 11.9283C23.8218 11.9283 23.8218 11.9382 23.8121 11.9482C23.7447 12.008 23.6869 12.0777 23.6194 12.1375C23.5134 12.247 23.3978 12.3566 23.2822 12.4661C23.0606 12.6853 22.8389 12.9143 22.6173 13.1335C22.521 13.2331 22.5113 13.3924 22.6173 13.4821C22.8486 13.7112 23.0798 13.9402 23.3111 14.1693V22.3865C20.8059 19.8964 18.3006 17.4163 15.7858 14.9363Z" fill="#00953B"/>
</svg>
