<svg width="48" height="48" viewBox="0 0 48 48" fill="none" xmlns="http://www.w3.org/2000/svg">
<rect width="48" height="48" rx="24" fill="white"/>
<path d="M28.8587 29.4715C23.2717 29.4715 18.7173 24.8933 18.7173 19.2357C18.7173 13.5968 23.2533 9 28.8587 9C34.4457 9 39.0001 13.5782 39.0001 19.2357C38.9816 24.8747 34.4272 29.4715 28.8587 29.4715ZM28.8587 15.067C26.5907 15.067 24.7468 16.9281 24.7468 19.2171C24.7468 21.5062 26.5907 23.3673 28.8587 23.3673C31.1267 23.3673 32.9706 21.5062 32.9706 19.2171C32.989 16.9281 31.1267 15.067 28.8587 15.067Z" fill="url(#paint0_linear_3987_910)"/>
<path d="M33.0994 37.9579V39.0001H19.934C17.3157 39.0001 14.8264 37.9579 12.9641 36.0783L12.6506 35.7619C10.4749 33.5659 9.20257 30.644 9.03662 27.5547C9.05506 27.7408 9.68198 32.1515 15.8037 32.1515H27.328C30.5179 32.1701 33.0994 34.7569 33.0994 37.9579Z" fill="url(#paint1_linear_3987_910)"/>
<path d="M9.01844 27.5547C9.01844 27.5547 9.53473 32.1515 15.804 32.1515V20.5013C15.804 17.3003 13.2225 14.6763 10.0326 14.6763H9L9.01844 27.5547Z" fill="url(#paint2_linear_3987_910)"/>
<defs>
<linearGradient id="paint0_linear_3987_910" x1="21.7557" y1="22.5073" x2="71.4606" y2="-0.0191762" gradientUnits="userSpaceOnUse">
<stop stop-color="#54D9BE"/>
<stop offset="1" stop-color="#363A8E"/>
</linearGradient>
<linearGradient id="paint1_linear_3987_910" x1="-0.636825" y1="45.3289" x2="82.5294" y2="0.0233777" gradientUnits="userSpaceOnUse">
<stop stop-color="#54D9BE"/>
<stop offset="1" stop-color="#363A8E"/>
</linearGradient>
<linearGradient id="paint2_linear_3987_910" x1="12.4061" y1="13.301" x2="12.4061" y2="50.3543" gradientUnits="userSpaceOnUse">
<stop stop-color="#54D9BE"/>
<stop offset="1" stop-color="#363A8E"/>
</linearGradient>
</defs>
</svg>
