<svg width="48" height="48" viewBox="0 0 48 48" fill="none" xmlns="http://www.w3.org/2000/svg">
<rect width="48" height="48" rx="24" fill="white"/>
<path d="M14.0137 29.9188V30.9388C14.0307 32.2776 14.5598 33.5565 15.4878 34.502C16.4158 35.4476 17.6691 35.9846 18.9797 35.9985H21.5573C21.7569 36.0078 21.9562 35.9748 22.1427 35.9016C22.3292 35.8285 22.4988 35.7167 22.641 35.5733C22.7832 35.43 22.8948 35.2581 22.9689 35.0686C23.0429 34.879 23.0778 34.6759 23.0713 34.4719V24.5459C23.0666 24.3997 23.0221 24.2578 22.9428 24.136C22.8635 24.0142 22.7526 23.9174 22.6225 23.8565C22.4923 23.7956 22.3482 23.7729 22.2061 23.7911C22.0641 23.8092 21.9298 23.8674 21.8183 23.9592L14.5423 28.7456C14.3509 28.8662 14.1986 29.042 14.1046 29.2507C14.0106 29.4594 13.979 29.6918 14.0137 29.9188Z" fill="#25B4BD"/>
<path d="M15.0382 26.1591L22.0076 21.5661C23.4497 20.6261 24.9245 21.5261 24.9245 23.0193V28.5456C24.9183 28.6767 24.9382 28.8078 24.9829 28.9309C25.0276 29.0539 25.0962 29.1665 25.1846 29.2618C25.273 29.3571 25.3794 29.4331 25.4973 29.4853C25.6152 29.5375 25.7422 29.5648 25.8707 29.5656H27.1171C31.3652 29.5656 35 26.4324 35 21.0994C35.0065 15.4531 30.7649 12 25.7989 12H15.4298C15.0569 12.0086 14.702 12.1651 14.4402 12.4364C14.1783 12.7076 14.0301 13.0723 14.0268 13.4532V25.6458C14.0327 25.7646 14.0696 25.8796 14.1336 25.9789C14.1977 26.0781 14.2866 26.1581 14.3911 26.2105C14.4957 26.2629 14.612 26.2857 14.7281 26.2767C14.8441 26.2676 14.9557 26.227 15.0513 26.1591" fill="#279D2E"/>
</svg>
