<svg width="48" height="48" viewBox="0 0 48 48" fill="none" xmlns="http://www.w3.org/2000/svg">
<rect width="48" height="48" rx="24" fill="white"/>
<path d="M11 24.001C11 33.1305 14.7234 39.9906 24 39.9906C33.2766 39.9906 37 33.1305 37 24.001C37 14.8716 33.2766 8.01145 24 8.01145C14.7234 8.01145 11 14.8716 11 24.001Z" fill="white"/>
<path d="M33.9642 12.6324C36.1326 15.4743 37 19.4509 37 24.0417C37 33.1711 33.2766 40 24 40C19.843 40 16.7754 38.6467 14.7234 36.2733C17.9707 32.7235 22.6355 27.5706 24.9731 24.6142C27.2474 21.7619 31.2246 16.5361 33.9642 12.6324Z" fill="#004899"/>
<path d="M13.9935 35.3676C11.9414 32.4945 11 28.5803 11 24.0312C11 14.8601 14.681 8 24 8C28.083 8 31.1505 9.35328 33.2026 11.6643C29.8495 15.3286 25.153 20.5855 23.0903 23.1776C20.7526 26.0299 16.7437 31.4639 13.9935 35.3676Z" fill="#009FE3"/>
</svg>
