<svg width="48" height="48" viewBox="0 0 48 48" fill="none" xmlns="http://www.w3.org/2000/svg">
<rect width="48" height="48" rx="24" fill="white"/>
<path d="M25.07 30.0299C24.8724 32.1888 23.9894 34.2255 22.5525 35.8369C22.5045 35.8853 22.4665 35.9427 22.4405 36.0059C22.4146 36.0692 22.4012 36.1369 22.4012 36.2054C22.4012 36.2738 22.4146 36.3416 22.4405 36.4048C22.4665 36.468 22.5045 36.5255 22.5525 36.5739C22.6532 36.6882 24.1007 38.1495 24.8056 38.8484C24.8525 38.8964 24.9083 38.9345 24.9699 38.9606C25.0315 38.9866 25.0976 39 25.1644 39C25.2312 39 25.2973 38.9866 25.3588 38.9606C25.4204 38.9345 25.4763 38.8964 25.5231 38.8484C27.9699 36.1658 29.3191 32.6471 29.2993 29.0006C29.3222 27.6941 29.1697 26.3904 28.8462 25.1251C28.1293 26.6419 27.1632 28.0253 25.9889 29.2167C25.698 29.505 25.3912 29.7766 25.07 30.0299Z" fill="#003A70"/>
<path d="M23.6978 23.7909C23.874 24.0958 24.0376 24.4135 24.1887 24.7312C24.5314 24.2489 24.8265 23.734 25.0698 23.1936C24.6246 23.42 24.1664 23.6194 23.6978 23.7909Z" fill="#003A70"/>
<path d="M15.5161 14.5659C15.4489 14.5642 15.3821 14.5761 15.3195 14.6009C15.257 14.6256 15.2 14.6628 15.1519 14.7102C15.1038 14.7575 15.0656 14.8141 15.0395 14.8767C15.0134 14.9392 15 15.0063 15 15.0741V18.2889C15 18.4271 15.0544 18.5596 15.1512 18.6573C15.2479 18.755 15.3792 18.8099 15.5161 18.8099C17.2156 18.8968 18.8655 19.417 20.3119 20.322C21.9206 20.0608 23.4417 19.4065 24.7426 18.416C22.2284 16.0504 18.9512 14.6828 15.5161 14.5659Z" fill="#003A70"/>
<path d="M28.5693 12.4183C27.9705 11.2335 27.2169 10.1352 26.3287 9.1527C26.2808 9.10429 26.2239 9.06589 26.1613 9.03969C26.0986 9.01349 26.0315 9 25.9637 9C25.8959 9 25.8288 9.01349 25.7661 9.03969C25.7035 9.06589 25.6466 9.10429 25.5987 9.1527L23.3329 11.4272C23.2854 11.4745 23.2476 11.5309 23.2218 11.593C23.196 11.6552 23.1827 11.7219 23.1827 11.7893C23.1827 11.8568 23.196 11.9235 23.2218 11.9857C23.2476 12.0478 23.2854 12.1042 23.3329 12.1515C24.6728 13.6424 25.5484 15.4985 25.8504 17.4883C27.2224 16.0986 28.1667 14.3378 28.5693 12.4183Z" fill="#80BC00"/>
<path d="M24.1887 24.7312C23.8198 25.2683 23.3983 25.7663 22.9301 26.2178C21.6367 27.5166 20.0253 28.4461 18.2602 28.9116C18.194 28.9222 18.1306 28.9463 18.0739 28.9825C18.0173 29.0187 17.9685 29.0663 17.9308 29.1223C17.8931 29.1782 17.8671 29.2414 17.8545 29.3079C17.8418 29.3744 17.8428 29.4428 17.8574 29.5088C17.8574 29.7376 18.2854 31.6944 18.4742 32.6601C18.5015 32.7946 18.5803 32.9127 18.6935 32.9888C18.8066 33.065 18.9449 33.093 19.0784 33.0667L19.4057 32.9778C21.4932 32.4479 23.4315 31.4391 25.07 30.0299C25.0891 29.6871 25.0891 29.3434 25.07 29.0006C25.0857 27.5298 24.7849 26.0732 24.1887 24.7312Z" fill="#80BC00"/>
<path d="M30.105 18.9243C29.7213 19.4577 29.3006 19.963 28.8463 20.4365C28.3978 20.8932 27.9183 21.3178 27.4113 21.7071C28.0291 22.7816 28.5111 23.9297 28.8462 25.1251C29.7003 23.1997 30.1299 21.1101 30.105 19.0006V18.9243Z" fill="#80BC00"/>
<path d="M25.0698 23.1936C24.8386 23.7325 24.5563 24.2475 24.2267 24.7313C24.8099 26.0762 25.0976 27.5326 25.07 29.0006C25.0891 29.3434 25.0891 29.6871 25.07 30.0299C25.3783 29.7754 25.6725 29.504 25.9511 29.2167C27.1389 28.0284 28.1179 26.6447 28.8462 25.1251C28.4992 23.9279 28.0044 22.7796 27.3735 21.7071C26.6557 22.2775 25.884 22.7754 25.0698 23.1936Z" fill="#487629"/>
<path d="M33 10.7665C32.9935 10.6328 32.9363 10.5068 32.8402 10.4145C32.7441 10.3222 32.6165 10.2708 32.4839 10.271H29.3119C29.175 10.271 29.0438 10.3259 28.947 10.4236C28.8502 10.5213 28.7958 10.6538 28.7958 10.792C28.7591 11.3473 28.6834 11.8993 28.5692 12.4438C29.573 14.4542 30.0989 16.6731 30.105 18.9243C31.8792 16.571 32.8902 13.7219 33 10.7665Z" fill="#00B2E3"/>
<path d="M25.9133 19.6485C25.9133 19.4325 25.9133 19.2164 25.9133 19.0004C25.9156 18.495 25.8862 17.99 25.8251 17.4883C25.485 17.8214 25.1234 18.1313 24.7426 18.416L25.0699 18.7844C25.3972 19.064 25.6615 19.3562 25.9133 19.6485Z" fill="#00B2E3"/>
<path d="M25.9133 19.6485C25.6615 19.3562 25.3971 19.0639 25.1202 18.7844L24.7426 18.416C23.4417 19.4065 21.9206 20.0608 20.3119 20.322C20.975 20.7407 21.5911 21.2305 22.1496 21.7832C22.7414 22.3892 23.261 23.063 23.6978 23.7909C24.1664 23.6194 24.6246 23.42 25.0698 23.1936C25.5554 22.0712 25.841 20.8711 25.9133 19.6485Z" fill="#236092"/>
<path d="M25.9133 19.6485C26.4564 20.292 26.945 20.9807 27.3735 21.7071C27.8935 21.3191 28.3857 20.8946 28.8463 20.4365C29.3016 19.9549 29.7222 19.4409 30.105 18.8988C30.095 16.6369 29.5604 14.4088 28.5441 12.3929C28.1403 14.3183 27.1914 16.084 25.8127 17.4756C25.8779 17.977 25.9116 18.482 25.9134 18.9877C25.926 19.1656 25.9258 19.4325 25.9133 19.6485Z" fill="#4C9C2E"/>
<path d="M25.0698 23.1936C25.884 22.7754 26.6557 22.2775 27.3735 21.7071C26.945 20.9807 26.4564 20.292 25.9133 19.6485C25.841 20.8711 25.5554 22.0712 25.0698 23.1936Z" fill="#1A5632"/>
<path d="M20.3119 20.322C19.7747 20.4057 19.2317 20.4439 18.6882 20.4363C18.1999 20.4332 17.7122 20.3992 17.2281 20.3346C17.1627 20.3197 17.0951 20.3181 17.0292 20.3299C16.9632 20.3418 16.9003 20.3667 16.844 20.4034C16.7877 20.4401 16.7393 20.4878 16.7015 20.5436C16.6637 20.5994 16.6373 20.6623 16.6239 20.7285L16.0197 23.8925C16.0031 23.9585 16.0001 24.0273 16.0111 24.0946C16.022 24.1618 16.0465 24.2261 16.0831 24.2833C16.1197 24.3405 16.1677 24.3895 16.2239 24.4272C16.2801 24.465 16.3434 24.4905 16.4099 24.5024C17.1627 24.63 17.9248 24.6938 18.6882 24.693C20.4065 24.6985 22.1118 24.3929 23.7232 23.7908C23.2864 23.063 22.7668 22.3892 22.1749 21.7832C21.6085 21.229 20.9837 20.7392 20.3119 20.322Z" fill="#00B2E3"/>
</svg>
