<svg width="48" height="48" viewBox="0 0 48 48" fill="none" xmlns="http://www.w3.org/2000/svg">
<rect width="48" height="48" rx="24" fill="white"/>
<path d="M24 9V24L21.406 21.4059L24 9Z" fill="#FFC629"/>
<path d="M15.5898 15.4624L21.4151 21.415L19.3762 21.3877L15.5898 15.4624Z" fill="#FFC629"/>
<path d="M39 24L24 24L26.5941 21.406L39 24Z" fill="#FFC629"/>
<path d="M32.5376 15.5807L26.585 21.415L26.6123 19.3762L32.5376 15.5807Z" fill="#FFC629"/>
<path d="M24 39L24 24L26.5941 26.5941L24 39Z" fill="#FFC629"/>
<path d="M32.4193 32.5376L26.585 26.5849L28.6238 26.6031L32.4193 32.5376Z" fill="#FFC629"/>
<path d="M9 24H24L21.4059 26.5941L9 24Z" fill="#FFC629"/>
<path d="M15.4624 32.4101L21.415 26.5849L21.3877 28.6237L15.4624 32.4101Z" fill="#FFC629"/>
</svg>
