<svg width="48" height="48" viewBox="0 0 48 48" fill="none" xmlns="http://www.w3.org/2000/svg">
<rect width="48" height="48" rx="24" fill="white"/>
<path d="M9.09966 14H15.7774C16.8239 14 17.5714 14.0974 18.0698 14.3411C18.6179 14.6334 19.0166 15.0719 19.3156 15.7053C19.5149 16.1438 19.6146 16.5824 19.6146 17.0209C19.6146 17.6056 19.4651 18.1903 19.1163 18.6775C18.7674 19.2135 18.3688 19.5545 17.8704 19.7494C19.0166 20.2367 19.5648 21.1624 19.5648 22.4779C19.5648 23.2088 19.3654 23.8422 19.0166 24.3782C18.7176 24.8167 18.3189 25.109 17.8206 25.3039C17.3222 25.4501 16.5747 25.5476 15.6279 25.5476H9.09966V14ZM11.5914 18.7262H15.0299C15.3787 18.7262 15.6279 18.7262 15.8272 18.6775C15.9767 18.6288 16.1262 18.58 16.2757 18.4339C16.6246 18.1415 16.8239 17.8005 16.8239 17.3132C16.8239 16.826 16.6744 16.4849 16.3256 16.29C16.0764 16.1438 15.6777 16.0464 15.0797 16.0464H11.5914V18.7262ZM11.5914 23.4524H15.0299C15.3787 23.4524 15.6279 23.4524 15.8272 23.4037C15.9767 23.355 16.1262 23.3063 16.2757 23.1601C16.6246 22.8677 16.8239 22.4779 16.8239 22.0394C16.8239 21.5522 16.6744 21.2111 16.3256 21.0162C16.0764 20.8701 15.6777 20.7726 15.0797 20.7726H11.5914V23.4524Z" fill="#00AEEF"/>
<path d="M13.0864 30.3712H32.1229C33.3189 30.3712 34.2658 30.2737 34.9136 30.0788C35.6113 29.884 36.2591 29.5429 36.8571 29.0069C37.5548 28.4222 38.0532 27.6914 38.4518 26.7656C38.8505 25.8399 39 24.9141 39 23.8909C39 22.6728 38.701 21.5522 38.1528 20.529C37.3555 19.1647 36.309 18.239 34.9635 17.8004C34.1661 17.5568 32.8206 17.4107 30.9767 17.4107H20.8106V25.5963C22.2558 25.5963 23.701 25.5963 25.1462 25.5963V20.9188H31.1262C31.8738 20.9188 32.4219 20.9675 32.7708 21.1137C33.7176 21.5035 34.2159 22.3318 34.2159 23.696C34.2159 24.9141 33.9169 25.7912 33.2691 26.2784C32.8206 26.6195 32.1229 26.7656 31.0266 26.7656H12.0897H14.4817H9V30.3225" fill="#00447C"/>
<path d="M25.2957 31.5893H20.9601V35H25.2957V31.5893Z" fill="#00447C"/>
</svg>
