<svg width="48" height="48" viewBox="0 0 48 48" fill="none" xmlns="http://www.w3.org/2000/svg">
<g clip-path="url(#clip0_3975_1106)">
<rect width="48" height="48" rx="24" fill="white"/>
<path d="M20.6457 0.166849C11.6288 1.48856 4.05601 7.81821 1.22835 16.4154C-0.786205 22.5268 -0.312906 29.0747 2.57543 34.8102C2.95164 35.562 3.27931 36.2047 3.30358 36.2289C3.33999 36.2653 6.50745 33.149 10.3667 29.3051C16.7987 22.9027 17.4297 22.2964 18.17 21.9447C20.9734 20.6352 23.9467 21.1566 26.0826 23.3392C26.3981 23.6666 26.835 24.2608 27.0413 24.6852L27.4418 25.437L29.0195 23.8849C29.8811 23.0361 30.8399 22.2115 31.1433 22.0539C33.8981 20.6473 36.9321 21.0596 39.0316 23.1331C39.4806 23.5696 40.0267 24.2486 40.2452 24.6367L40.6335 25.3278L42.1141 23.897C43.1821 22.8663 43.8374 22.3449 44.4563 22.0175C45.3908 21.5325 46.5558 21.2051 47.4296 21.2051H48L47.9272 20.7443C47.7451 19.4468 47.3447 17.7492 46.9199 16.4518C44.068 7.78183 36.4588 1.44006 27.3933 0.178975C25.7428 -0.0514149 22.2113 -0.0635407 20.6457 0.166849Z" fill="#E40A18"/>
<path d="M17.0657 32.0455C10.4516 38.6419 9.772 39.2725 9.01958 39.6362C8.57055 39.8545 7.80599 40.1213 7.33269 40.2304L6.45891 40.4365L7.41764 41.3581C10.9977 44.814 15.755 47.13 20.6943 47.809C22.454 48.0637 25.6336 48.0637 27.3933 47.809C32.5996 47.0936 37.369 44.7048 41.0947 40.9701C44.2015 37.8659 46.3495 34.0826 47.4053 29.875C48.0728 27.2073 48.6432 26.8314 42.0291 33.4157C35.7306 39.6969 35.6942 39.7211 33.9709 40.1698C33.0365 40.4123 31.5195 40.4123 30.5972 40.1819C29.7476 39.9515 28.7161 39.418 28.0486 38.8481L27.5632 38.4358L33.1821 32.8216L38.7889 27.2073L38.619 26.6253C38.4248 25.9705 37.733 24.8428 37.5389 24.8428C37.4661 24.8428 34.1287 28.1046 30.1117 32.094C22.3205 39.8545 22.5511 39.6605 20.8278 40.1698C20.0147 40.4123 18.3157 40.4244 17.4419 40.1819C16.5802 39.9636 15.67 39.5029 14.954 38.9451L14.3836 38.4964L19.9661 32.9186C23.0486 29.8386 25.5608 27.2558 25.5608 27.1831C25.5608 26.6617 24.6384 24.8428 24.3715 24.8428C24.3229 24.8428 21.0341 28.0804 17.0657 32.0455Z" fill="#E40A18"/>
</g>
<defs>
<clipPath id="clip0_3975_1106">
<rect width="48" height="48" rx="24" fill="white"/>
</clipPath>
</defs>
</svg>
