<svg width="48" height="48" viewBox="0 0 48 48" fill="none" xmlns="http://www.w3.org/2000/svg">
<rect x="0.5" y="0.5" width="47" height="47" rx="23.5" stroke="white"/>
<path d="M47 24C47 36.7025 36.7025 47 24 47C11.2975 47 1 36.7025 1 24C1 11.2975 11.2975 1 24 1C36.7025 1 47 11.2975 47 24Z" fill="#5843C3"/>
<path d="M16.9232 13.7371C17.9587 13.7371 18.798 14.5766 18.798 15.6121V25.4146C18.798 28.1993 21.1071 30.4698 23.9713 30.4698C26.8356 30.4698 29.1447 28.1993 29.1447 25.4146C29.1447 22.6495 26.8553 20.4302 23.9713 20.4302C22.9359 20.4302 22.0966 19.5907 22.0966 18.5551C22.0966 17.5196 22.9359 16.6801 23.9713 16.6801C28.9004 16.6801 32.8942 20.5518 32.8942 25.4146C32.8942 30.2848 28.8922 34.2199 23.9713 34.2199C19.0504 34.2199 15.0485 30.2848 15.0485 25.4146V15.6121C15.0485 14.5766 15.8878 13.7371 16.9232 13.7371ZM23.8709 22.7091C25.3014 22.7091 26.4611 23.8689 26.4611 25.2996C26.4611 26.7304 25.3014 27.8902 23.8709 27.8902C22.4403 27.8902 21.2807 26.7304 21.2807 25.2996C21.2807 23.8689 22.4403 22.7091 23.8709 22.7091Z" fill="white"/>
</svg>
