<svg width="48" height="48" viewBox="0 0 48 48" fill="none" xmlns="http://www.w3.org/2000/svg">
<rect width="48" height="48" rx="24" fill="white"/>
<path d="M14.2415 20.5601C13.8631 26.4679 18.8595 32.0197 26.7713 35.6133C28.574 34.1113 30.1208 32.3312 31.3559 30.2952C35.0615 24.1982 35.6179 16.6105 33.5036 9.00046H23.9782C18.2475 11.7485 14.5419 15.8206 14.2415 20.5601Z" fill="#EE3124"/>
<path d="M21.2739 38.9951C14.6974 34.9342 10.4577 29.2378 10.8361 23.0852C11.2033 17.2776 15.6655 12.2265 22.0417 9H9V38.9951H21.2294C21.2516 38.9951 21.2628 39.0062 21.2739 38.9951Z" fill="#EE3124"/>
<path d="M39 9.00046H35.4169C35.7062 9.9684 36.1179 10.9363 36.3293 11.9265C38.2656 20.7826 36.9859 29.5386 32.7017 36.559C32.5014 36.8927 31.1327 38.6729 30.9101 38.9955H39V9.00046Z" fill="#EE3124"/>
</svg>
