<svg width="48" height="48" viewBox="0 0 48 48" fill="none" xmlns="http://www.w3.org/2000/svg">
<rect width="48" height="48" rx="24" fill="white"/>
<path d="M17 9V30.3327L19.3054 29.0049L21.4942 27.7354L23.9455 26.32L23.9747 26.3054C24.0039 26.2909 24.0477 26.2763 24.0768 26.2617C24.106 26.2471 24.1352 26.2325 24.179 26.2325C24.2228 26.2179 24.2519 26.2033 24.2957 26.2033C24.3395 26.2033 24.3687 26.1887 24.3979 26.1887C24.427 26.1887 24.4708 26.1887 24.5 26.1887C24.5292 26.1887 24.573 26.1887 24.6021 26.1887C24.6313 26.1887 24.6751 26.2033 24.7043 26.2033C24.7335 26.2033 24.7772 26.2179 24.8064 26.2325C24.8356 26.2325 24.8648 26.2471 24.9086 26.2617C24.9377 26.2763 24.9815 26.2909 25.0107 26.3054L25.0399 26.32L27.4912 27.7354L29.68 29.0049L31.9854 30.3327V9H17Z" fill="#F37321"/>
<path d="M27.5058 30.2597L25.0399 28.8444C24.7043 28.6547 24.2957 28.6547 23.9601 28.8444L21.5088 30.2597L19.32 31.5146L17 32.857V39H32V32.857L29.6946 31.5292L27.5058 30.2597Z" fill="#F37321"/>
<path d="M32 32.857L29.6946 31.5292L27.5058 30.2743L25.0399 28.8444C24.7043 28.6547 24.2957 28.6547 23.9601 28.8444L21.5088 30.2597L19.32 31.5146L17 32.857V30.3327L19.3054 29.0049L21.4942 27.7354L23.9455 26.32L23.9747 26.3054C24.0039 26.2909 24.0477 26.2763 24.0768 26.2617C24.106 26.2471 24.1352 26.2325 24.179 26.2325C24.2228 26.2179 24.2519 26.2033 24.2957 26.2033C24.3395 26.2033 24.3687 26.1887 24.3979 26.1887C24.427 26.1887 24.4708 26.1887 24.5 26.1887C24.5292 26.1887 24.573 26.1887 24.6021 26.1887C24.6313 26.1887 24.6751 26.2033 24.7043 26.2033C24.7335 26.2033 24.7772 26.2179 24.8064 26.2325C24.8356 26.2325 24.8648 26.2471 24.9086 26.2617C24.9377 26.2763 24.9815 26.2909 25.0107 26.3054L25.0399 26.32L27.4912 27.7354L29.68 29.0049L31.9854 30.3327V32.857" fill="white"/>
</svg>
