<svg width="48" height="48" viewBox="0 0 48 48" fill="none" xmlns="http://www.w3.org/2000/svg">
<rect width="48" height="48" rx="24" fill="white"/>
<path d="M24 14C15.1634 14 8 20.9556 8 29.5358H40C40 20.9556 32.8366 14 24 14Z" fill="#003057"/>
<path d="M23.9999 18.6428C17.8901 18.6428 12.9371 23.5198 12.9371 29.5357H35.0628C35.0628 23.5198 30.1098 18.6428 23.9999 18.6428Z" fill="#F3F6FB"/>
<path d="M23.9998 20.0715C18.5969 20.0715 14.217 24.3088 14.217 29.5358H33.7827C33.7827 24.3088 29.4028 20.0715 23.9998 20.0715Z" fill="#003057"/>
<path d="M24.0002 24.0002C20.819 24.0002 18.2402 26.4787 18.2402 29.536H29.7602C29.7602 26.4787 27.1814 24.0002 24.0002 24.0002Z" fill="#F3F6FB"/>
<path d="M23.9085 34C26.4332 34 28.4799 32.0013 28.4799 29.5357C28.4799 27.0701 26.4332 25.0714 23.9085 25.0714C21.3838 25.0714 19.3371 27.0701 19.3371 29.5357C19.3371 32.0013 21.3838 34 23.9085 34Z" fill="#003057"/>
</svg>
