<svg width="48" height="48" viewBox="0 0 48 48" fill="none" xmlns="http://www.w3.org/2000/svg">
<g clip-path="url(#clip0_3978_165)">
<rect width="48" height="48" rx="24" fill="white"/>
<path d="M0 0V30.3765C1.98932 26.8637 8.59269 15.6659 12.0465 15.6659C13.6845 15.6659 16.4158 19.9168 16.4158 19.9168C16.4158 19.9168 29.8002 40.2126 48.0041 40.7967V0H0ZM29.5832 19.8774L24.2941 23.2599L29.6069 18.0618L29.5832 19.8774ZM34.2289 18.0618L36.0405 18.0735L39.4232 23.3626L34.2249 18.0735L31.9159 29.1332V15.7566L29.599 18.0656L18.5275 15.7566H31.9159L29.599 13.4357L31.9159 2.36823V15.7527L34.217 13.4436L34.2406 11.6201L39.5337 8.24544L34.2289 13.4357L45.2885 15.7527H31.9159L34.2289 18.0618ZM24.4007 8.12694L29.6029 13.4436L27.7833 13.416L24.4007 8.12694Z" fill="#116DD9"/>
<path d="M48.0041 48V44.4516C44.5662 44.3727 30.4712 43.0267 18.1683 26.911L11.9082 44.2937V19.2931C11.9082 19.2931 7.17568 22.6204 0.00395015 36.4154V48H48.0041Z" fill="#9E9E9F"/>
</g>
<rect x="0.5" y="0.5" width="47" height="47" rx="23.5" stroke="white"/>
<defs>
<clipPath id="clip0_3978_165">
<rect width="48" height="48" rx="24" fill="white"/>
</clipPath>
</defs>
</svg>
