<svg width="48" height="48" viewBox="0 0 48 48" fill="none" xmlns="http://www.w3.org/2000/svg">
<rect width="48" height="48" rx="24" fill="white"/>
<path d="M24.5308 11.0071C24.4208 11.8262 24.4837 12.6592 24.7154 13.4526C25.2881 14.8536 26.1055 16.1422 27.1297 17.2582C28.2645 18.5097 29.18 19.9427 29.838 21.4973C30.1398 22.2514 30.2095 23.0782 30.0383 23.872C32.0315 24.2772 33.951 24.9839 35.7304 25.9675C37.108 26.7218 38.1959 27.9107 38.8236 29.348C39.0672 30.1618 39.0583 31.0301 38.798 31.8388C38.5531 32.4918 38.181 33.0898 37.7031 33.5985C35.7006 35.7847 31.7382 37.3559 26.955 37.849C25.4469 37.9746 23.9334 38.0219 22.4204 37.9907C16.038 37.6209 10.9054 35.4234 9.44547 32.4367C9.14548 31.8927 8.9921 31.2803 9.00031 30.6595C9.00853 30.0386 9.17806 29.4305 9.49234 28.8946C10.4165 27.5306 11.684 26.4331 13.1678 25.7124C14.7167 24.9597 16.3298 24.3461 17.9879 23.879C18.0675 24.9501 20.1637 27.5118 20.8567 28.4129C21.7898 29.5733 22.638 30.7992 23.3946 32.0811C23.7035 32.555 23.8212 33.128 23.7241 33.6849C24.0378 33.4028 24.3078 33.0757 24.5251 32.7144C24.8129 32.1194 24.9275 31.4557 24.856 30.7988C24.8142 29.9772 24.5907 29.1749 24.2013 28.4497C23.599 27.3211 22.8675 26.2661 22.0213 25.3058C20.7908 24.0653 19.9329 22.5061 19.5445 20.8045C19.3903 20.09 19.4077 19.3493 19.5952 18.6428C19.7828 17.9364 20.1353 17.2842 20.6238 16.7396C20.7845 16.6068 20.9576 16.4896 21.1408 16.3897C21.1408 16.3897 21.1138 16.7963 21.1138 17.2568C21.069 18.0296 21.2375 18.8 21.6009 19.484C22.4706 20.9745 23.5079 22.3611 24.6927 23.6169C26.4438 25.694 26.9891 26.7495 26.9891 28.0686C26.9891 28.3789 26.9891 28.7047 26.9891 28.7047C27.2439 28.5109 27.4717 28.2841 27.6665 28.0304C28.0101 27.4219 28.2127 26.7444 28.2594 26.0476C28.3061 25.3508 28.1957 24.6524 27.9364 24.0037C27.2834 22.5446 26.3959 21.2018 25.309 20.0281C23.9181 18.5684 23.0546 16.6879 22.8549 14.6838C22.7782 13.9771 22.8926 13.2628 23.186 12.615C23.4794 11.9672 23.9413 11.4096 24.5237 11L24.5308 11.0071Z" fill="#FE001E"/>
</svg>
