<svg width="48" height="48" viewBox="0 0 48 48" fill="none" xmlns="http://www.w3.org/2000/svg">
<rect width="48" height="48" rx="24" fill="white"/>
<path d="M39.6855 24.1678C34.025 23.3709 28.574 21.5777 25.01 19.9839C22.9135 25.164 18.9301 30.643 14.8419 34.4284C14.6322 34.6277 14.8419 34.9265 15.1564 34.7273C24.0665 28.8498 33.2912 26.0605 39.6855 24.8651C40.1048 24.7655 40.1048 24.2674 39.6855 24.1678Z" fill="#821642"/>
<path d="M9.18096 10.5199C11.2775 15.7 13.6885 26.2595 8.02788 37.8151C7.92306 37.9147 8.13271 38.114 8.34236 37.9148C15.156 33.7308 21.0262 25.5622 23.0179 18.9874C16.3091 15.7 12.2209 12.313 9.80991 10.1214C9.39061 9.82255 9.07614 10.1214 9.18096 10.5199Z" fill="#EE2527"/>
</svg>
